<svg xmlns="http://www.w3.org/2000/svg" xmlns:xlink="http://www.w3.org/1999/xlink" width="640.265" height="297.429" viewBox="0 0 640.265 297.429">
  <defs>
    <clipPath id="clip-path">
      <path id="Path_139707" data-name="Path 139707" d="M392.186,216.273a19.456,19.456,0,0,0,.505-2.129.576.576,0,0,0-.017-.332.56.56,0,0,0-.3-.236,8.466,8.466,0,0,0-2.092-.637,2.614,2.614,0,0,0-1.321.043,1.117,1.117,0,0,0-.775.984,1.286,1.286,0,0,0,.124.494,2.536,2.536,0,0,0,.439.676,4.863,4.863,0,0,0,1.218.891,10.94,10.94,0,0,0,2.235,1.058" transform="translate(-388.189 -212.876)" fill="none"/>
    </clipPath>
  </defs>
  <g id="Group_37145" data-name="Group 37145" transform="translate(-599.735 -5045.725)">
    <g id="Group_36381" data-name="Group 36381" transform="translate(575.033 4953.869)">
      <g id="Group_36309" data-name="Group 36309" transform="translate(500.234 154.251)">
        <g id="Group_36308" data-name="Group 36308" transform="translate(6.399 0)">
          <g id="Group_36290" data-name="Group 36290" transform="translate(25.801)">
            <rect id="Rectangle_1150" data-name="Rectangle 1150" width="113.4" height="225.399" fill="#d2ab94"/>
            <rect id="Rectangle_1151" data-name="Rectangle 1151" width="6.61" height="24.928" rx="1.681" transform="translate(95.396 105.847)" fill="#f2e2c8"/>
            <path id="Path_139599" data-name="Path 139599" d="M689.121,292.575a.984.984,0,1,0-1.935,0,1.147,1.147,0,0,0,.677,1.1l-.677,2.287h1.838l-.608-2.281A1.135,1.135,0,0,0,689.121,292.575Z" transform="translate(-589.483 -171.411)" fill="#606060"/>
            <circle id="Ellipse_1426" data-name="Ellipse 1426" cx="6.3" cy="6.3" r="6.3" transform="translate(92.166 102.2)" fill="#606060"/>
            <path id="Path_139600" data-name="Path 139600" d="M690.838,272.8a7.845,7.845,0,0,1,1.071,6.827,6.784,6.784,0,0,1-6.592,4.48,6.3,6.3,0,0,0,5.521-11.307Z" transform="translate(-589.322 -169.809)" fill="#545453"/>
            <path id="Path_139601" data-name="Path 139601" d="M583.34,385.811V163.679H690.362V385.811" transform="translate(-580.54 -160.412)" fill="none" stroke="#606060" stroke-miterlimit="10" stroke-width="1"/>
          </g>
          <g id="Group_36307" data-name="Group 36307" transform="translate(0 161.138)">
            <g id="Group_36291" data-name="Group 36291" transform="translate(38.153 2.144)">
              <rect id="Rectangle_1152" data-name="Rectangle 1152" width="20.846" height="41.563" rx="2.298" transform="translate(0.185 0) rotate(0.255)" fill="#e57930"/>
              <rect id="Rectangle_1153" data-name="Rectangle 1153" width="15.762" height="4.041" transform="matrix(1, 0.004, -0.004, 1, 2.707, 4.629)" fill="#fff" opacity="0.59"/>
              <rect id="Rectangle_1154" data-name="Rectangle 1154" width="15.762" height="4.041" transform="translate(2.678 10.979) rotate(0.255)" fill="#fff" opacity="0.38"/>
              <rect id="Rectangle_1155" data-name="Rectangle 1155" width="15.762" height="4.041" transform="translate(2.651 17.016) rotate(0.255)" fill="#fff" opacity="0.19"/>
            </g>
            <g id="Group_36306" data-name="Group 36306">
              <g id="Group_36292" data-name="Group 36292" transform="translate(40.547 6.736)">
                <path id="Path_139602" data-name="Path 139602" d="M601.547,364.373c-5.3,12.967-7.574,24.3-1.537,26.765,6.373,2.6,12.342-7.224,17.636-20.191s7.91-24.163,1.537-26.765C613.145,341.716,606.841,351.407,601.547,364.373Z" transform="translate(-596.411 -343.797)" fill="#c37134"/>
                <path id="Path_139603" data-name="Path 139603" d="M607.856,361.487c.564,2.054,2.35,4.53,4.367,5.216a6.669,6.669,0,0,0,6.061-.981,20.531,20.531,0,0,1-10.261-4.2" transform="translate(-597.397 -345.32)" fill="#f59052"/>
                <path id="Path_139604" data-name="Path 139604" d="M604.295,370.626c.6,2.044,2.421,4.493,4.449,5.145a6.667,6.667,0,0,0,6.044-1.076,20.533,20.533,0,0,1-10.326-4.034" transform="translate(-597.09 -346.107)" fill="#f59052"/>
                <path id="Path_139605" data-name="Path 139605" d="M600.972,379.923c.481,1.75,2,3.859,3.72,4.443a5.681,5.681,0,0,0,5.163-.835,17.493,17.493,0,0,1-8.741-3.575" transform="translate(-596.804 -346.908)" fill="#f59052"/>
                <path id="Path_139606" data-name="Path 139606" d="M611.92,353.314c.481,1.75,2,3.859,3.719,4.443a5.681,5.681,0,0,0,5.164-.835,17.493,17.493,0,0,1-8.741-3.575" transform="translate(-597.747 -344.616)" fill="#f59052"/>
              </g>
              <g id="Group_36295" data-name="Group 36295" transform="translate(26.722 6.527)">
                <g id="Group_36293" data-name="Group 36293">
                  <path id="Path_139607" data-name="Path 139607" d="M592.088,355.708c4.528-2.029,6.379-8.124,3.687-12.14-5.307,1.323-7.984,8.261-4.839,12.54" transform="translate(-581.999 -343.568)" fill="#6ea652"/>
                  <path id="Path_139608" data-name="Path 139608" d="M582.23,350.592c4.192.367,7.386,4.877,6.174,8.715a1.426,1.426,0,0,1-.575.865,1.556,1.556,0,0,1-.981.1c-3.518-.5-6.176-4.132-5.442-7.445" transform="translate(-581.284 -344.173)" fill="#6ea652"/>
                  <path id="Path_139609" data-name="Path 139609" d="M597.722,358.793a7.767,7.767,0,0,0-4.874,8.7.823.823,0,0,0,.38.612.909.909,0,0,0,.79-.149,7.818,7.818,0,0,0,3.74-8.492" transform="translate(-582.265 -344.879)" fill="#6ea652"/>
                </g>
                <g id="Group_36294" data-name="Group 36294" transform="translate(5.056 6.276)">
                  <path id="Path_139610" data-name="Path 139610" d="M592.56,401.66c3.71-8.275-.01-17.634-1.512-26.517a53,53,0,0,1,1.716-24.708" transform="translate(-587.117 -350.435)" fill="none" stroke="#2d6e56" stroke-miterlimit="10" stroke-width="0.709"/>
                  <path id="Path_139611" data-name="Path 139611" d="M590.127,363.778a21.085,21.085,0,0,1-3.311-6.509" transform="translate(-586.816 -351.023)" fill="none" stroke="#2d6e56" stroke-miterlimit="10" stroke-width="0.709"/>
                  <path id="Path_139612" data-name="Path 139612" d="M594.6,364.3a5.84,5.84,0,0,1-3.678,5.662" transform="translate(-587.17 -351.629)" fill="none" stroke="#2d6e56" stroke-miterlimit="10" stroke-width="0.709"/>
                </g>
              </g>
              <g id="Group_36298" data-name="Group 36298" transform="translate(10.785)">
                <path id="Path_139613" data-name="Path 139613" d="M575.918,356.662a16.046,16.046,0,0,0-12.073-13.239,37.833,37.833,0,0,0,11.85,14.315" transform="translate(-563.845 -337.029)" fill="#6ea652"/>
                <path id="Path_139614" data-name="Path 139614" d="M578.818,356.735a20.409,20.409,0,0,0-4.93-20.309,56.388,56.388,0,0,0,3.028,19.611" transform="translate(-564.708 -336.426)" fill="#6ea652"/>
                <path id="Path_139615" data-name="Path 139615" d="M578.983,356a10.378,10.378,0,0,0,2.748-10.953,19.312,19.312,0,0,0-5.513,12.209" transform="translate(-564.91 -337.168)" fill="#83ba63"/>
                <path id="Path_139616" data-name="Path 139616" d="M577.647,357.635a16.464,16.464,0,0,0-6.023-13.918,18.572,18.572,0,0,0,4.011,13.154" transform="translate(-564.509 -337.054)" fill="#83ba63"/>
                <g id="Group_36297" data-name="Group 36297" transform="translate(8.999 18.247)">
                  <path id="Path_139617" data-name="Path 139617" d="M576.977,357.616c.918-1.668,3.585-1.49,4.912-.124s1.664,3.386,1.907,5.274c1.1,8.529,1.586,17.124,2.074,25.71-.865.321-1.622-.651-2.031-1.478a155.492,155.492,0,0,1-9.806-25.161,4.666,4.666,0,0,1-.242-2.564,1.642,1.642,0,0,1,1.969-1.228" transform="translate(-573.692 -356.394)" fill="#ff9b4b"/>
                  <g id="Group_36296" data-name="Group 36296" transform="translate(0.764)">
                    <path id="Path_139618" data-name="Path 139618" d="M577.112,361.16l-2.584.707" transform="translate(-574.528 -356.803)" fill="none" stroke="#e0853d" stroke-miterlimit="10" stroke-width="1"/>
                    <path id="Path_139619" data-name="Path 139619" d="M583.86,363.669l-2.382.692" transform="translate(-575.127 -357.019)" fill="none" stroke="#e0853d" stroke-miterlimit="10" stroke-width="1"/>
                    <path id="Path_139620" data-name="Path 139620" d="M578.564,368.7a13.267,13.267,0,0,0-1.8.566" transform="translate(-574.72 -357.452)" fill="none" stroke="#e0853d" stroke-miterlimit="10" stroke-width="1"/>
                    <path id="Path_139621" data-name="Path 139621" d="M585.009,371.514l-1.793.591" transform="translate(-575.276 -357.694)" fill="none" stroke="#e0853d" stroke-miterlimit="10" stroke-width="1"/>
                    <path id="Path_139622" data-name="Path 139622" d="M581.066,377.259l-1.257.22" transform="translate(-574.983 -358.189)" fill="none" stroke="#e0853d" stroke-miterlimit="10" stroke-width="1"/>
                    <path id="Path_139623" data-name="Path 139623" d="M585.746,379.738a5,5,0,0,1-1.324.322" transform="translate(-575.38 -358.402)" fill="none" stroke="#e0853d" stroke-miterlimit="10" stroke-width="1"/>
                    <path id="Path_139624" data-name="Path 139624" d="M579.229,356.392a7.062,7.062,0,0,1-4.016,1.3" transform="translate(-574.587 -356.392)" fill="none" stroke="#e0853d" stroke-miterlimit="10" stroke-width="1"/>
                  </g>
                </g>
              </g>
              <g id="Group_36303" data-name="Group 36303" transform="translate(0.69 12.793)">
                <g id="Group_36302" data-name="Group 36302">
                  <g id="Group_36299" data-name="Group 36299" transform="translate(4.889)">
                    <path id="Path_139625" data-name="Path 139625" d="M563.594,362.457a8.712,8.712,0,0,0-3.526-12.033c-3.526,3.8-1.966,10.964,2.82,12.952" transform="translate(-558.149 -350.424)" fill="#6ea652"/>
                  </g>
                  <g id="Group_36300" data-name="Group 36300" transform="translate(0 11.224)">
                    <path id="Path_139626" data-name="Path 139626" d="M552.8,363.359a7.044,7.044,0,0,1,9.562,4.167,1.118,1.118,0,0,1-.726,1.595,6.434,6.434,0,0,1-8.3-3.475" transform="translate(-552.799 -362.706)" fill="#6ea652"/>
                  </g>
                  <g id="Group_36301" data-name="Group 36301" transform="translate(14.183 10.797)">
                    <path id="Path_139627" data-name="Path 139627" d="M569.693,362.238a7.777,7.777,0,0,0,.746,9.751.816.816,0,0,0,.629.32c.263-.031.432-.289.551-.525a7.913,7.913,0,0,0-1.54-9.006" transform="translate(-568.318 -362.238)" fill="#6ea652"/>
                  </g>
                </g>
              </g>
              <g id="Group_36304" data-name="Group 36304" transform="translate(7.215 19.604)">
                <path id="Path_139628" data-name="Path 139628" d="M573.014,379.433a55.133,55.133,0,0,1-11.788-21.556" transform="translate(-560.05 -357.877)" fill="none" stroke="#2d6e56" stroke-miterlimit="10" stroke-width="0.709"/>
                <path id="Path_139629" data-name="Path 139629" d="M566.044,370.5a21.351,21.351,0,0,1-6.1-3.771" transform="translate(-559.939 -358.64)" fill="none" stroke="#2d6e56" stroke-miterlimit="10" stroke-width="0.709"/>
                <path id="Path_139630" data-name="Path 139630" d="M570.168,368.5a5.813,5.813,0,0,1,.083,6.606" transform="translate(-560.82 -358.792)" fill="none" stroke="#2d6e56" stroke-miterlimit="10" stroke-width="0.709"/>
              </g>
              <g id="Group_36305" data-name="Group 36305" transform="translate(0 29.563)">
                <path id="Path_139631" data-name="Path 139631" d="M616.531,368.775l-4.344,34.744-52.458.355-7.685-34.744Z" transform="translate(-552.044 -368.775)" fill="#f2e2c8"/>
                <path id="Path_139632" data-name="Path 139632" d="M559.427,403.9l-7.383-34.744,5.661-.033a57.972,57.972,0,0,1,4.625,12.74c1.409,5.144,2.822,10.4,5.6,14.813a17.511,17.511,0,0,0,8.07,7.107Z" transform="translate(-552.044 -368.805)" fill="#e2cfb5"/>
              </g>
            </g>
          </g>
        </g>
        <line id="Line_276" data-name="Line 276" x2="164.733" transform="translate(0 225.866)" fill="none" stroke="#606060" stroke-miterlimit="10" stroke-width="1"/>
      </g>
      <g id="Group_36316" data-name="Group 36316" transform="translate(144.471 92.131)">
        <g id="Group_36314" data-name="Group 36314">
          <path id="Path_139633" data-name="Path 139633" d="M198.016,92.363a38.086,38.086,0,0,0-28.723,66.972,1.3,1.3,0,0,0,.926.748l.044.036-6.783,19.669a1.172,1.172,0,0,0,1.9,1.183l17.387-14.32a38.082,38.082,0,1,0,15.25-74.288Z" transform="translate(-155.757 -92.131)" fill="#fff" stroke="#1d1d1b" stroke-miterlimit="10" stroke-width="0.5"/>
          <g id="Group_36310" data-name="Group 36310" transform="translate(38.551 21.129)">
            <rect id="Rectangle_1156" data-name="Rectangle 1156" width="21.619" height="30.822" rx="2.298" fill="#e57930"/>
            <rect id="Rectangle_1157" data-name="Rectangle 1157" width="16.346" height="2.997" transform="translate(2.636 3.425)" fill="#fff" opacity="0.59"/>
            <rect id="Rectangle_1158" data-name="Rectangle 1158" width="16.346" height="2.997" transform="translate(2.636 8.134)" fill="#fff" opacity="0.38"/>
            <rect id="Rectangle_1159" data-name="Rectangle 1159" width="16.346" height="2.997" transform="translate(2.636 12.611)" fill="#fff" opacity="0.19"/>
          </g>
          <g id="Group_36311" data-name="Group 36311" transform="translate(26.608 36.962)">
            <rect id="Rectangle_1160" data-name="Rectangle 1160" width="29.57" height="20.98" rx="0.681" transform="translate(2.586)" fill="#6ea652"/>
            <rect id="Rectangle_1161" data-name="Rectangle 1161" width="29.668" height="0.726" transform="translate(2.537 4.832)" fill="#5d8e3d"/>
            <rect id="Rectangle_1162" data-name="Rectangle 1162" width="34.743" height="4.565" rx="0.404" fill="#6ea652"/>
            <rect id="Rectangle_1163" data-name="Rectangle 1163" width="25.179" height="8.248" transform="translate(4.782 7.266)" fill="#5d8e3d"/>
          </g>
          <path id="Path_139634" data-name="Path 139634" d="M189.84,153.192a8.818,8.818,0,0,1,2.7-15.646,8.414,8.414,0,0,1,9.064,12.979,8.273,8.273,0,0,1-6.256,3.483" transform="translate(-158.375 -96.017)" fill="#d34c4c"/>
          <g id="Group_36312" data-name="Group 36312" transform="translate(12.537 22.574)">
            <path id="Path_139635" data-name="Path 139635" d="M185.4,132.423c3.886,9.77,5.524,18.281.989,20.054-4.787,1.872-9.2-5.556-13.081-15.326s-5.777-18.183-.99-20.054C176.855,115.324,181.516,122.653,185.4,132.423Z" transform="translate(-169.475 -116.831)" fill="#c37134"/>
            <path id="Path_139636" data-name="Path 139636" d="M181.832,130.21a6,6,0,0,1-3.3,3.852,5.007,5.007,0,0,1-4.531-.806,15.248,15.248,0,0,0,7.707-3.019" transform="translate(-169.865 -117.984)" fill="#f59052"/>
            <path id="Path_139637" data-name="Path 139637" d="M178.948,124.044a5.118,5.118,0,0,1-2.811,3.282,4.272,4.272,0,0,1-3.861-.687,12.988,12.988,0,0,0,6.566-2.572" transform="translate(-169.717 -117.453)" fill="#f59052"/>
          </g>
          <path id="Path_139638" data-name="Path 139638" d="M179.953,153.875a6.621,6.621,0,0,1-3.783-5.556,8.671,8.671,0,0,1,2.424-6.426,7.109,7.109,0,0,1,2.514-1.8c2.589-1.032,5.662.129,7.558,2.171a8.226,8.226,0,0,1,1.967,8.039,6.219,6.219,0,0,1-6.791,4.143c-.86-.181-1.821-.557-2.556-.076" transform="translate(-157.513 -96.228)" fill="#efb93f"/>
          <g id="Group_36313" data-name="Group 36313" transform="translate(8.33 11.604)">
            <rect id="Rectangle_1164" data-name="Rectangle 1164" width="38.267" height="1.633" transform="translate(12.134 45.383)" fill="#38303b"/>
            <rect id="Rectangle_1165" data-name="Rectangle 1165" width="28.488" height="1.688" transform="translate(59.5 20.183) rotate(109.654)" fill="#38303b"/>
            <rect id="Rectangle_1166" data-name="Rectangle 1166" width="28.488" height="1.688" transform="translate(4.185 19.615) rotate(70.346)" fill="#38303b"/>
            <path id="Path_139639" data-name="Path 139639" d="M225.305,127.327H166.739a1.867,1.867,0,0,1-1.867-1.867h0a1.867,1.867,0,0,1,1.867-1.867h58.566a1.867,1.867,0,0,1,1.866,1.867h0A1.867,1.867,0,0,1,225.305,127.327Z" transform="translate(-164.872 -106.444)" fill="#38303b"/>
            <path id="Rectangle_1167" data-name="Rectangle 1167" d="M1.2,0h0a1.2,1.2,0,0,1,1.2,1.2V24.417a1.2,1.2,0,0,1-1.2,1.2h0a1.2,1.2,0,0,1-1.2-1.2V1.2A1.2,1.2,0,0,1,1.2,0Z" transform="translate(28.91 0.329) rotate(47.246)" fill="#38303b"/>
            <rect id="Rectangle_1168" data-name="Rectangle 1168" width="2.406" height="25.62" rx="1.203" transform="translate(52.629 18.116) rotate(135)" fill="#38303b"/>
            <line id="Line_277" data-name="Line 277" x2="5.164" y2="27.042" transform="translate(17.683 19.295)" fill="none" stroke="#38303b" stroke-miterlimit="10" stroke-width="1"/>
            <line id="Line_278" data-name="Line 278" x1="5.164" y2="27.042" transform="translate(41.249 19.295)" fill="none" stroke="#38303b" stroke-miterlimit="10" stroke-width="1"/>
            <line id="Line_279" data-name="Line 279" x2="0.778" y2="26.289" transform="translate(32.278 19.25)" fill="none" stroke="#38303b" stroke-miterlimit="10" stroke-width="1"/>
            <line id="Line_280" data-name="Line 280" x1="45.422" y1="0.156" transform="translate(8.478 33.25)" fill="none" stroke="#38303b" stroke-miterlimit="10" stroke-width="1"/>
          </g>
        </g>
        <g id="Group_36315" data-name="Group 36315" transform="translate(82.296 31.667)">
          <path id="Path_139640" data-name="Path 139640" d="M245.808,140.444c32.667,1.167,40.133,28.7,72.333,60.9,13.187,13.186,33.267,26.729,54.133,26.133,32.667-.934,45.211-13.483,62.269-25.514,11.464-8.086,19.864-19.753,15.664-30.953-.832-2.217-3.733-9.333-11.2-9.8-5.531-.345-12.242,3.325-14.467,8.4-2.6,5.921-2.294,12.758.467,19.6,3.512,8.707,16.317,21.528,24.5,26.133,7.858,4.423,21.1,11.295,30.1,11.9,24.266,1.634,34.067-12.833,40.133-21.7,12.1-17.685,22.166-23.8,34.067-25.667,9.952-1.561,21.933.934,27.533,8.4" transform="translate(-245.808 -127.958)" fill="none" stroke="#1d1d1b" stroke-miterlimit="10" stroke-width="1" stroke-dasharray="5"/>
          <path id="Path_139641" data-name="Path 139641" d="M617.458,126.782c-9.613-.064-17.463,8.268-17.53,18.609s17.158,37.9,17.158,37.9,17.588-27.327,17.656-37.669S627.072,126.845,617.458,126.782Zm-.18,27.417a9.531,9.531,0,1,1,9.423-9.468A9.446,9.446,0,0,1,617.278,154.2Z" transform="translate(-276.303 -126.782)" fill="#f2e2c8"/>
          <path id="Path_139642" data-name="Path 139642" d="M621.832,196.073a3.033,3.033,0,1,1-3.033-3.033A3.033,3.033,0,0,1,621.832,196.073Z" transform="translate(-277.667 -132.487)" fill="#f2e2c8"/>
        </g>
      </g>
      <g id="Group_36340" data-name="Group 36340" transform="translate(264.9 175.717)">
        <line id="Line_281" data-name="Line 281" x2="195.066" transform="translate(0.465 204.399)" fill="none" stroke="#606060" stroke-miterlimit="10" stroke-width="1"/>
        <g id="Group_36339" data-name="Group 36339">
          <g id="Group_36318" data-name="Group 36318" transform="translate(98.497 158.723)">
            <path id="Path_139643" data-name="Path 139643" d="M404.859,364.837c-.552-2.5,1.006-5,.919-7.537a7.371,7.371,0,0,1-4.153.025.564.564,0,0,0-.447-.008.326.326,0,0,0-.12.223c-.406,1.923-.594,3.925-1.7,5.661-.19.3-.384.7-.069.922" transform="translate(-395.64 -357.273)" fill="#e89c82"/>
            <g id="Group_36317" data-name="Group 36317" transform="translate(0 4.722)">
              <path id="Path_139644" data-name="Path 139644" d="M421.966,371.011c-4.2.239-7.639.43-11.838.669a8,8,0,0,1-3.789-.4c-.635-.292-1.273-.77-1.966-.623-.536.112-.9.57-1.392.806a3.593,3.593,0,0,1-1.409.249l-4.4.182a2.114,2.114,0,0,1-1.391-.264,1.725,1.725,0,0,1-.462-1.476,22.074,22.074,0,0,1,1.078-6.216,1.558,1.558,0,0,1,.861-1.125,1.872,1.872,0,0,1,1.336.293c1.683.837,3.882,1.406,5.4.317a6.158,6.158,0,0,1,1.17-.853,3.107,3.107,0,0,1,1.621-.056,56.564,56.564,0,0,1,13.549,3.794,5.8,5.8,0,0,1,2.583,1.722,1.916,1.916,0,0,1-.309,2.7" transform="translate(-395.312 -362.44)" fill="#00021c"/>
            </g>
          </g>
          <g id="Group_36326" data-name="Group 36326" transform="translate(0 38.471)">
            <g id="Group_36321" data-name="Group 36321" transform="translate(16.276 2.692)">
              <g id="Group_36319" data-name="Group 36319" transform="translate(12.599)">
                <path id="Path_139645" data-name="Path 139645" d="M326.922,240.3c-2.9-3.963-1.82-9.818,2.152-11.665,3.853,3.8,3.1,10.755-1.364,12.58" transform="translate(-319.66 -228.635)" fill="#6ea652"/>
                <path id="Path_139646" data-name="Path 139646" d="M337.265,241.443c-3.651-1.861-8.254.123-8.895,3.836a1.41,1.41,0,0,0,.107.991,1.655,1.655,0,0,0,.774.585c3.146,1.411,6.924-.146,7.739-3.19" transform="translate(-319.922 -229.677)" fill="#6ea652"/>
                <path id="Path_139647" data-name="Path 139647" d="M321.156,239.938c2.353,2.849,2.5,7.111.319,9.5a.688.688,0,0,1-.58.3c-.26-.037-.452-.292-.594-.526-1.746-2.88-1.517-6.607.536-8.757" transform="translate(-319.13 -229.608)" fill="#6ea652"/>
              </g>
              <g id="Group_36320" data-name="Group 36320" transform="translate(0 6.629)">
                <path id="Path_139648" data-name="Path 139648" d="M305.344,277.209c.47-8.568,7.6-14.183,12.671-20.557a45.9,45.9,0,0,0,9.2-20.763" transform="translate(-305.344 -235.889)" fill="none" stroke="#2d6e56" stroke-miterlimit="10" stroke-width="0.709"/>
                <path id="Path_139649" data-name="Path 139649" d="M325.4,248.1a17.4,17.4,0,0,0,5.56-3.532" transform="translate(-307.071 -236.636)" fill="none" stroke="#2d6e56" stroke-miterlimit="10" stroke-width="0.709"/>
                <path id="Path_139650" data-name="Path 139650" d="M321.615,246.043a5.743,5.743,0,0,0,.628,6.448" transform="translate(-306.683 -236.763)" fill="none" stroke="#2d6e56" stroke-miterlimit="10" stroke-width="0.709"/>
              </g>
            </g>
            <g id="Group_36322" data-name="Group 36322" transform="translate(22.734)">
              <ellipse id="Ellipse_1427" data-name="Ellipse 1427" cx="16.343" cy="5.603" rx="16.343" ry="5.603" transform="translate(0 32.479) rotate(-83.538)" fill="#c37134"/>
              <path id="Path_139651" data-name="Path 139651" d="M317.192,239.447a5.227,5.227,0,0,0,3.621,2.472,4.3,4.3,0,0,0,3.587-1.669,13.236,13.236,0,0,1-7.1-.808" transform="translate(-312.822 -226.874)" fill="#f59052"/>
              <path id="Path_139652" data-name="Path 139652" d="M316.582,245.738a5.229,5.229,0,0,0,3.659,2.414,4.3,4.3,0,0,0,3.561-1.725,13.232,13.232,0,0,1-7.11-.7" transform="translate(-312.769 -227.416)" fill="#f59052"/>
              <path id="Path_139653" data-name="Path 139653" d="M316.147,252.087a4.457,4.457,0,0,0,3.084,2.106,3.662,3.662,0,0,0,3.056-1.421,11.281,11.281,0,0,1-6.047-.689" transform="translate(-312.732 -227.962)" fill="#f59052"/>
              <path id="Path_139654" data-name="Path 139654" d="M318.283,233.667a4.452,4.452,0,0,0,3.084,2.106,3.661,3.661,0,0,0,3.056-1.421,11.259,11.259,0,0,1-6.046-.689" transform="translate(-312.916 -226.376)" fill="#f59052"/>
            </g>
            <path id="Path_139655" data-name="Path 139655" d="M309.1,230.682l-.019-3.42,4.324-.025.018,3.232a3.918,3.918,0,0,0,1.326,2.915l1.346,1.188a5.871,5.871,0,0,1,1.989,4.372l.153,26.851a1.36,1.36,0,0,1-1.353,1.369l-10.826.061a1.361,1.361,0,0,1-1.369-1.353l-.152-26.733a5.876,5.876,0,0,1,2.086-4.524l1.088-.918A3.92,3.92,0,0,0,309.1,230.682Z" transform="translate(-288.998 -225.823)" fill="#f2e2c8"/>
            <g id="Group_36325" data-name="Group 36325" transform="translate(0 0.183)">
              <path id="Path_139656" data-name="Path 139656" d="M299.608,246.126a16.047,16.047,0,0,0-12.074-13.239A37.835,37.835,0,0,0,299.385,247.2" transform="translate(-287.534 -226.493)" fill="#6ea652"/>
              <path id="Path_139657" data-name="Path 139657" d="M302.508,246.2a20.409,20.409,0,0,0-4.93-20.309,56.391,56.391,0,0,0,3.028,19.611" transform="translate(-288.398 -225.89)" fill="#6ea652"/>
              <path id="Path_139658" data-name="Path 139658" d="M302.673,245.462a10.375,10.375,0,0,0,2.747-10.952,19.312,19.312,0,0,0-5.513,12.208" transform="translate(-288.599 -226.632)" fill="#83ba63"/>
              <path id="Path_139659" data-name="Path 139659" d="M301.337,247.1a16.464,16.464,0,0,0-6.023-13.918,18.572,18.572,0,0,0,4.011,13.154" transform="translate(-288.198 -226.518)" fill="#83ba63"/>
              <g id="Group_36324" data-name="Group 36324" transform="translate(8.999 18.247)">
                <path id="Path_139660" data-name="Path 139660" d="M300.666,247.08c.919-1.668,3.585-1.49,4.913-.124s1.663,3.386,1.906,5.274c1.1,8.53,1.587,17.124,2.074,25.71-.865.321-1.622-.651-2.031-1.478a155.483,155.483,0,0,1-9.805-25.161,4.667,4.667,0,0,1-.243-2.564,1.643,1.643,0,0,1,1.97-1.228" transform="translate(-297.381 -245.858)" fill="#ff9b4b"/>
                <g id="Group_36323" data-name="Group 36323" transform="translate(0.765)">
                  <path id="Path_139661" data-name="Path 139661" d="M300.8,250.624l-2.584.707" transform="translate(-298.218 -246.267)" fill="none" stroke="#e0853d" stroke-miterlimit="10" stroke-width="1"/>
                  <path id="Path_139662" data-name="Path 139662" d="M307.55,253.133l-2.382.692" transform="translate(-298.816 -246.483)" fill="none" stroke="#e0853d" stroke-miterlimit="10" stroke-width="1"/>
                  <path id="Path_139663" data-name="Path 139663" d="M302.254,258.164a13.23,13.23,0,0,0-1.8.566" transform="translate(-298.41 -246.916)" fill="none" stroke="#e0853d" stroke-miterlimit="10" stroke-width="1"/>
                  <path id="Path_139664" data-name="Path 139664" d="M308.7,260.978l-1.794.591" transform="translate(-298.966 -247.158)" fill="none" stroke="#e0853d" stroke-miterlimit="10" stroke-width="1"/>
                  <path id="Path_139665" data-name="Path 139665" d="M304.756,266.723l-1.257.22" transform="translate(-298.673 -247.653)" fill="none" stroke="#e0853d" stroke-miterlimit="10" stroke-width="1"/>
                  <path id="Path_139666" data-name="Path 139666" d="M309.436,269.2a4.973,4.973,0,0,1-1.324.322" transform="translate(-299.07 -247.866)" fill="none" stroke="#e0853d" stroke-miterlimit="10" stroke-width="1"/>
                  <path id="Path_139667" data-name="Path 139667" d="M302.92,245.856a7.067,7.067,0,0,1-4.017,1.3" transform="translate(-298.277 -245.856)" fill="none" stroke="#e0853d" stroke-miterlimit="10" stroke-width="1"/>
                </g>
              </g>
            </g>
            <rect id="Rectangle_1169" data-name="Rectangle 1169" width="43.042" height="31.912" transform="translate(8.782 48.329)" fill="#edc2af"/>
            <rect id="Rectangle_1170" data-name="Rectangle 1170" width="44.763" height="30.379" transform="translate(1.035 18.26)" fill="#d2ab94"/>
            <path id="Path_139668" data-name="Path 139668" d="M304.967,245.3c6.528,21.831,14.182,44.6,20.876,66" transform="translate(-289.035 -227.379)" fill="none" stroke="#00021c" stroke-miterlimit="10" stroke-width="1"/>
            <path id="Path_139669" data-name="Path 139669" d="M313.157,311.493c5.027-22.381,9.511-43.809,14.538-66.189" transform="translate(-289.741 -227.379)" fill="none" stroke="#00021c" stroke-miterlimit="10" stroke-width="1"/>
          </g>
          <g id="Group_36328" data-name="Group 36328" transform="translate(5.841 66.114)">
            <rect id="Rectangle_1171" data-name="Rectangle 1171" width="52.08" height="3.659" transform="translate(0 52.597)" fill="#2a232d"/>
            <rect id="Rectangle_1172" data-name="Rectangle 1172" width="23.536" height="2.446" transform="translate(14.18 53.362) rotate(45)" fill="#2a232d"/>
            <rect id="Rectangle_1173" data-name="Rectangle 1173" width="78.336" height="9.469" transform="translate(58.895 105.407)" fill="#00021c"/>
            <path id="Path_139670" data-name="Path 139670" d="M313.557,360.964c-1.914-22.191,10.372-34.768,17.791-41.511a53.684,53.684,0,0,1,19.894-10.713c14.06-3.444,20.593-2.085,33.286-.383-6.7,7.652-9.84,10.118-13.582,19.321-3.539,8.7-4.6,13.584-2.487,21.616,1.913,7.269,8.229,9.506,12.434,9.756,19.32,1.148,25.839-1.173,37.111-11.668,10.607-9.876,15.2-25.921,14.7-40.4-.46-13.53-4.845-26.605-10.316-39.02a3.4,3.4,0,0,1,1.953-4.569c.388-.14.965-.342,1.912-.694,1.659-.617,3.539-1.142,5.153-.415a6.925,6.925,0,0,1,2.664,2.654c10.044,14.919,19.142,43.281,17.791,61.215s-5.439,23.42-10.9,40.555c-33.095,2.344-74.845,1.482-123.912,1.052" transform="translate(-295.599 -256.453)" fill="#38303b"/>
            <path id="Path_139671" data-name="Path 139671" d="M314.808,353.965l37.147,20.161q6.7.063,13.172.11.238-2.766.475-5.532c.463-5.4.925-10.87.075-16.226s-3.029-11.152-7.232-14.578a29.839,29.839,0,0,0-14.73-5.739,43.472,43.472,0,0,0-20.982,3.466A44.588,44.588,0,0,0,314.808,353.965Z" transform="translate(-295.724 -262.49)" fill="#2a232d"/>
            <path id="Path_139672" data-name="Path 139672" d="M458,316.707c-.526,11.7-3.271,23.455-9.254,33.52l8.818,4.524c2.937-8.048,5.06-14.475,5.962-26.448.873-11.579-2.613-27.5-7.894-41.348A137.412,137.412,0,0,1,458,316.707Z" transform="translate(-307.257 -258.609)" fill="#2a232d"/>
            <path id="Path_139673" data-name="Path 139673" d="M350.321,317.679a117.721,117.721,0,0,0,16.02,3.11c2.541.312,5.176.568,7.4,1.841a7.086,7.086,0,0,1,2.924,3.2c2.741-4.79,5.747-7.615,10.688-13.26-12.693-1.7-19.225-3.061-33.286.383a45.556,45.556,0,0,0-7.949,3A13.514,13.514,0,0,0,350.321,317.679Z" transform="translate(-298.42 -260.663)" fill="#2a232d"/>
            <path id="Path_139674" data-name="Path 139674" d="M463.813,273.38a6.8,6.8,0,1,0-.62-13.373" transform="translate(-308.502 -256.276)" fill="none" stroke="#2a232d" stroke-miterlimit="10" stroke-width="1"/>
            <path id="Path_139675" data-name="Path 139675" d="M449.254,279.095a5.669,5.669,0,0,1,7.92-4.66c.977.429,1.818,1.125,2.795,1.554a4.637,4.637,0,0,0,4.289.175,1.455,1.455,0,0,0,.593-.46,3.421,3.421,0,0,0,.43-1.291c0-4.678.042-9.281-.42-13.937-.1-1,.152-2.036-.44-2.849a3.925,3.925,0,0,0-1.738-1.266,6.851,6.851,0,0,0-5.869.537c-2.52,1.661-3.478,5-5.9,6.793-2.534,1.877-4.568,2.544-8.155-1.473-1.094-1.225-4.281,1.68-5.81,2.279" transform="translate(-306.242 -255.937)" fill="#38303b"/>
            <path id="Path_139676" data-name="Path 139676" d="M466.467,269.48a10.128,10.128,0,0,1-6.655,1.912,20.819,20.819,0,0,0-3.836-.3A10.238,10.238,0,0,0,451.6,273.1a.945.945,0,0,0-.361,1.52l1.034,2.015a5.471,5.471,0,0,1,.963-.729,5.766,5.766,0,0,1,5.151-.306c.977.429,1.818,1.125,2.795,1.554a4.637,4.637,0,0,0,4.289.175,1.455,1.455,0,0,0,.593-.46,3.421,3.421,0,0,0,.43-1.291C466.491,273.535,466.5,271.506,466.467,269.48Z" transform="translate(-307.452 -257.104)" fill="#2a232d"/>
            <path id="Path_139677" data-name="Path 139677" d="M314.9,369.42H305a4.089,4.089,0,0,1-4.089-4.089h0a4.089,4.089,0,0,1,4.089-4.09h9.9a4.09,4.09,0,0,1,4.09,4.09h0A4.089,4.089,0,0,1,314.9,369.42Z" transform="translate(-294.527 -265.006)" fill="#00021c"/>
            <circle id="Ellipse_1428" data-name="Ellipse 1428" cx="20.875" cy="20.875" r="20.875" transform="matrix(0.744, -0.668, 0.668, 0.744, 9.114, 116.398)" fill="#38303b"/>
            <path id="Path_139678" data-name="Path 139678" d="M347.679,383.828a12.721,12.721,0,1,1-12.721-12.721A12.722,12.722,0,0,1,347.679,383.828Z" transform="translate(-296.364 -265.855)" fill="#fff"/>
            <circle id="Ellipse_1429" data-name="Ellipse 1429" cx="10.213" cy="10.213" r="10.213" transform="translate(26.922 126.425) rotate(-80.815)" fill="#2a232d"/>
            <path id="Path_139679" data-name="Path 139679" d="M363.309,378.613c-1.53,7.652-56.432,6.459-56.432-1.992,0-12.528,6.217-38.168,34.72-38.168C368.571,338.453,365.862,365.852,363.309,378.613Z" transform="translate(-295.041 -263.043)" fill="#f2e2c8"/>
            <circle id="Ellipse_1430" data-name="Ellipse 1430" cx="20.875" cy="20.875" r="20.875" transform="translate(124.309 133.551) rotate(-76.849)" fill="#38303b"/>
            <circle id="Ellipse_1431" data-name="Ellipse 1431" cx="13.104" cy="13.104" r="13.104" transform="matrix(0.228, -0.974, 0.974, 0.228, 133.636, 127.738)" fill="#fff"/>
            <path id="Path_139680" data-name="Path 139680" d="M466.917,384.036A10.521,10.521,0,1,1,456.4,373.515,10.52,10.52,0,0,1,466.917,384.036Z" transform="translate(-307.011 -266.063)" fill="#2a232d"/>
            <path id="Path_139681" data-name="Path 139681" d="M481.521,377.679c0,7.561-54,8.452-54,0,0-12.528,9.525-26.156,24.418-26.894C471.26,349.829,481.521,365.15,481.521,377.679Z" transform="translate(-305.43 -264.102)" fill="#f2e2c8"/>
            <g id="Group_36327" data-name="Group 36327" transform="translate(16.332 82.152)">
              <path id="Path_139682" data-name="Path 139682" d="M311.8,375.253a49.22,49.22,0,0,1,5.777-17.7,26.682,26.682,0,0,1,13.114-11.719" transform="translate(-311.796 -345.831)" fill="none" stroke="#2a232d" stroke-miterlimit="10" stroke-width="1"/>
              <path id="Path_139683" data-name="Path 139683" d="M318.9,370.63c1.013-6.221,4.075-11.923,8.81-15.222" transform="translate(-312.408 -346.656)" fill="none" stroke="#2a232d" stroke-miterlimit="10" stroke-width="1"/>
              <path id="Path_139684" data-name="Path 139684" d="M480.161,377.568c0-6.217-4.065-13.822-9.255-16.962" transform="translate(-325.498 -347.103)" fill="none" stroke="#2a232d" stroke-miterlimit="10" stroke-width="1"/>
              <path id="Path_139685" data-name="Path 139685" d="M475.469,379.175c.068-4.119-2.229-8.666-4.3-10.015" transform="translate(-325.521 -347.84)" fill="none" stroke="#2a232d" stroke-miterlimit="10" stroke-width="1"/>
            </g>
            <path id="Path_139686" data-name="Path 139686" d="M439.36,273.539a3,3,0,0,0-3.9.027c-4.186,3.613-7.275,6.858-11.9,10.609a2.3,2.3,0,0,0-.671.915,2.822,2.822,0,0,0,.477,2.412c.691,1.162,1.931,2.319,3.21,1.906a3.448,3.448,0,0,0,1.136-.741q6-5.175,11.779-10.6a3.042,3.042,0,0,0-.125-4.527Z" transform="translate(-305.02 -257.392)" fill="#00021c"/>
            <path id="Path_139687" data-name="Path 139687" d="M435.34,278.608a6.491,6.491,0,0,0-8.382-2.345c-.775.4-1.468.951-2.257,1.321a11.193,11.193,0,0,1-3.973.781,18.9,18.9,0,0,1-2.573,0l-.134,5.6c1.963.1,3.931.194,5.363.195.345,0,.773-.468,1.053-.67.323-.233,1.033-1.084,1.339-1.339,1.148-.957,1.483-1.705,3.115-1.124a3.552,3.552,0,0,1,2.132,4.2,1.572,1.572,0,0,0-.123.894c.178.568.982.593,1.546.4C435.488,285.514,436.9,281.409,435.34,278.608Z" transform="translate(-304.612 -257.63)" fill="#83ba63"/>
          </g>
          <g id="Group_36338" data-name="Group 36338" transform="translate(43.397)">
            <path id="Path_139688" data-name="Path 139688" d="M392.726,364.546a30.28,30.28,0,0,1,1.493-5.1.682.682,0,0,1,.2-.314,1.039,1.039,0,0,1,.526-.147q2.587-.25,5.192-.361a44.236,44.236,0,0,0-.886,7.784" transform="translate(-339.989 -198.666)" fill="#f7b094"/>
            <g id="Group_36336" data-name="Group 36336">
              <path id="Path_139689" data-name="Path 139689" d="M360.416,306.345c-3.7-3.665-4.623-14.485-.589-17.783,5.378-4.4,14.346-1.788,19.217-.612,7.781,1.876,18.173,3.718,26.794,6.146,5.768,1.624,9.807,3.481,12.454,6.676,3.516,4.245,1.448,9.79-1.282,17.409-4.838,13.507-8.66,22.407-14.236,35.195a1.593,1.593,0,0,1-1.433.951,33.978,33.978,0,0,1-4.961-.145,2.275,2.275,0,0,1-1.723-.741,2.426,2.426,0,0,1-.032-1.831c3.516-16.732,2.563-26.085,9.235-38.826a104.311,104.311,0,0,1-35.909-4.542" transform="translate(-336.929 -192.421)" fill="#408463"/>
              <g id="Group_36330" data-name="Group 36330" transform="translate(18.327 38.014)">
                <g id="Group_36329" data-name="Group 36329" transform="translate(18.497 2.844)">
                  <path id="Path_139690" data-name="Path 139690" d="M431.372,274.673c.092.281-.234-.424-.524-.368a85.2,85.2,0,0,1-15.208,1.578,71.145,71.145,0,0,1-15.378-1.6c-3.283-.713-8-2.457-10.4-6.317-4.2-6.745-7.659-11.943-10.936-19.18-2.231-4.929-4.534-9.174-3.232-14.6.305-1.271,1.846-3.257,3.872-4.7,3.225-2.3,7.109-.865,9.535,1.061,3.252,2.583,4.346,6.889,5.375,9.811,2.171,6.162,3.183,11.371,5.355,17.533.965,2.738,2.106,5.7,4.609,7.167a12.486,12.486,0,0,0,4.781,1.289c6.66.869,13.089,1.045,19.742,1.893a.5.5,0,0,1,.408.336Z" transform="translate(-375.314 -228.302)" fill="#ea8f18"/>
                  <path id="Path_139691" data-name="Path 139691" d="M402.259,267.351c1.038-.039,1.989-.008,3.027-.048" transform="translate(-377.634 -231.66)" fill="#ea8f18"/>
                  <path id="Path_139692" data-name="Path 139692" d="M404.778,266.361c-1.9-1.884-2.3-4.681-3.092-7.238" transform="translate(-377.585 -230.956)" fill="#ea8f18"/>
                </g>
                <path id="Path_139693" data-name="Path 139693" d="M355.074,291.109c.857-14.863,3.851-19.555,3.3-34.433-.287-7.748-1.918-14.99.573-21.521,1.958-5.131,7.585-10.011,13.239-9.965,3.214.026,9.052.885,13.124,3.969,6.755,5.117,6.2,13.673,6.637,22.065.748,14.506-1.722,28.694,0,43.9" transform="translate(-355.074 -225.19)" fill="#f2e2c8"/>
              </g>
              <path id="Path_139694" data-name="Path 139694" d="M356.513,307.043c-3.643-3.727-4.378-14.561-.287-17.791,5.451-4.3,14.374-1.544,19.225-.287,7.747,2.009,18.106,4.026,26.685,6.6,5.739,1.722,9.747,3.647,12.338,6.886,3.444,4.3,1.281,9.813-1.576,17.385-4.979,13.186-9.514,22.038-15.192,34.383a2.511,2.511,0,0,1-2.388,1.456,30.688,30.688,0,0,1-3.658-.194,2.275,2.275,0,0,1-1.71-.77,2.424,2.424,0,0,1,0-1.831c3.8-16.67,3-26.038,9.891-38.664a104.336,104.336,0,0,1-35.827-5.151" transform="translate(-336.607 -192.492)" fill="#4c9374"/>
              <path id="Path_139695" data-name="Path 139695" d="M381.645,214.85c-4.987.412-11.025-1.465-12.267-4.977-1.6-4.522-2.7-6.434-2.916-9.732-.189-2.853-.565-4.665,1.036-7.416a14.289,14.289,0,0,1,8.919-6.319,24.945,24.945,0,0,1,8.658-.335,2.077,2.077,0,0,1,1.228,3.554c-20.53,16.326.028,3.242,2.048,3.268,1.984.025-1.848,1.168-1.19,2.282.755,1.279.814,2.087-.326,3.477-.647.791,1.834,2.509.3,4.934-1.391,2.193.5,10.006-2.79,10.928" transform="translate(-337.712 -183.788)" fill="#38303b"/>
              <path id="Path_139696" data-name="Path 139696" d="M375.152,225.727c-.886-.714-1.541-.859-1.411-2.1.325-3.13.791-4.968,1.019-7.083.093-.869.187-1.739.315-2.605a1.014,1.014,0,0,1,.195-.547.67.67,0,0,1,.4-.181c1.395-.235,2.658.647,3.986,1.047,1.624.491,3.394.261,5.036.685a.668.668,0,0,1,.5.34.99.99,0,0,1,.045.4c-.067,2.514-.334,5.086-.448,8.247a8.249,8.249,0,0,1-.271,2.548l-.886.717c-.835.753-3.955.538-5.534-.179A10.02,10.02,0,0,1,375.152,225.727Z" transform="translate(-338.353 -186.14)" fill="#f7b094"/>
              <path id="Path_139697" data-name="Path 139697" d="M375.354,213.388a.67.67,0,0,1,.4-.181c1.395-.235,2.658.647,3.986,1.048,1.624.49,3.394.26,5.036.684a.671.671,0,0,1,.5.34,1.006,1.006,0,0,1,.044.4q-.056,2.108-.111,4.216a9.463,9.463,0,0,1-4.84,1.328,6.7,6.7,0,0,1-5.656-3.45l.134-1.238c.093-.869.187-1.739.315-2.605A1.014,1.014,0,0,1,375.354,213.388Z" transform="translate(-338.438 -186.14)" fill="#e89c82"/>
              <path id="Path_139698" data-name="Path 139698" d="M371.485,207.565c-1.709-.664-3.414-1.99-3.335-3.367s1.886-2.545,3.722-2.182" transform="translate(-337.872 -185.174)" fill="#f7b094"/>
              <path id="Path_139699" data-name="Path 139699" d="M371.879,207.92c.988,6.9,5.71,8.194,10.559,10.249a9.617,9.617,0,0,0,3.3.6c2.368-.041,3.722-2.133,4.436-3.945a41.594,41.594,0,0,0,2.53-9.705c.3-2.268.915-5.846.06-8.029s-3.329-2.966-6.04-3.659c-3.377-.865-7.047.484-9.646,2.393-3.835,2.815-6.182,7.107-5.32,11.252" transform="translate(-338.168 -184.418)" fill="#f7b094"/>
              <path id="Path_139700" data-name="Path 139700" d="M387.226,200.323c-.085.048-.01.153.1.175a.727.727,0,0,0,.328-.032,6.788,6.788,0,0,1,4.008.275,2.02,2.02,0,0,0,.584.179c.212.019.456-.059.476-.2a.248.248,0,0,0-.065-.175,1.945,1.945,0,0,0-.833-.543,5.992,5.992,0,0,0-3.607-.21,1.923,1.923,0,0,0-1.035.564" transform="translate(-339.512 -184.973)" fill="#38303b"/>
              <path id="Path_139701" data-name="Path 139701" d="M380.882,207.478a3.3,3.3,0,0,0,.771,4.467,2.957,2.957,0,0,0,4.329-.5,3.418,3.418,0,0,0-.729-4.569A3.019,3.019,0,0,0,380.882,207.478Z" transform="translate(-338.921 -185.54)" fill="#ed825d" opacity="0.47"/>
              <path id="Path_139702" data-name="Path 139702" d="M389.229,204.145c-.192.791.042,1.518.522,1.624s1.024-.448,1.215-1.238-.042-1.519-.522-1.625S389.42,203.354,389.229,204.145Z" transform="translate(-339.682 -185.255)" fill="#38303b"/>
              <path id="Path_139703" data-name="Path 139703" d="M386.4,190.479c6.211-3.37-2.784-4.494-7.391-4.387-1.1.026-3,2.478-4.093,2.535A7.064,7.064,0,0,0,368.822,194c-.7,2.732-.421,3.091.716,5.663l2.306.652c.015-.021-.054.961.007,1.97a4.418,4.418,0,0,0,.193,1.6.79.79,0,0,0,1.438-.143c1.2-3.664,2.9-6.838,6.292-8.283a15.1,15.1,0,0,1,2.813-.555c2.149-.209,1.588-.322,3.744-.432s1.87-.415,3.451-1.824C391.517,191.1,384.425,191.552,386.4,190.479Z" transform="translate(-337.898 -183.808)" fill="#38303b"/>
              <path id="Path_139704" data-name="Path 139704" d="M391.912,203.438a3.446,3.446,0,0,0-1.716-.686,3.043,3.043,0,0,0-1.767.186" transform="translate(-339.619 -185.239)" fill="none" stroke="#38303b" stroke-miterlimit="10" stroke-width="0.709"/>
              <g id="Group_36334" data-name="Group 36334" transform="translate(48.591 26.761)">
                <g id="Group_36333" data-name="Group 36333" clip-path="url(#clip-path)">
                  <g id="Group_36331" data-name="Group 36331" transform="translate(0.984 0.757)">
                    <path id="Path_139705" data-name="Path 139705" d="M396.392,214.632a4.8,4.8,0,0,1-4.985.94,5.148,5.148,0,0,1-2.141-1.868,9.834,9.834,0,0,0,7.171.843" transform="translate(-389.266 -213.704)" fill="#e66e60"/>
                  </g>
                  <g id="Group_36332" data-name="Group 36332" transform="translate(0.812 0.687)">
                    <path id="Path_139706" data-name="Path 139706" d="M396.376,214.625a9.753,9.753,0,0,1-5.965-.212,2.537,2.537,0,0,1-1.334-.785,17.8,17.8,0,0,0,7.537.868Z" transform="translate(-389.077 -213.628)" fill="#fff"/>
                  </g>
                </g>
              </g>
              <path id="Path_139708" data-name="Path 139708" d="M374.583,208.912l.514,3.993a6.918,6.918,0,0,0,.483,2.058c.68,1.458,2.253,2.24,3.712,2.915,2.977,1.375,6.438,2.762,9.414,1.382a4.983,4.983,0,0,0,2.62-2.892,21.289,21.289,0,0,0,1.086-3.743c.3-1.157,2.573-2.244,2.365-3.423a7.443,7.443,0,0,0-.876-1.613c-.488-.728-.982-2.06-1.221-1.5a9.982,9.982,0,0,1-2.977,2.37,12.1,12.1,0,0,1-5.789.686c-2.929-.133-6.181-.409-8.166-2.568-1.734-1.886-1.446-3.608-3.576-4.744.56.589,1.57,3.758,2.408,6.748" transform="translate(-338.219 -185.165)" fill="#f2e2c8"/>
              <path id="Path_139709" data-name="Path 139709" d="M406.243,197.219l-.011-.647a.823.823,0,0,0-.811-.809l-12.387-.191A13.615,13.615,0,0,0,382.5,183.9a13.773,13.773,0,0,0-16.253,10.73,14.345,14.345,0,0,0-.324,2.788l27.223.482c0-.014,0-.027,0-.04l12.263.2A.824.824,0,0,0,406.243,197.219Z" transform="translate(-337.681 -183.594)" fill="#4c9374"/>
              <path id="Path_139710" data-name="Path 139710" d="M405.422,196.878l-12.387-.191c-.006-.048-.017-.1-.024-.145l-27.065,1.385c-.013.2-.022.4-.026.6l27.223.482c0-.014,0-.027,0-.04l12.263.2a.824.824,0,0,0,.837-.838l-.011-.647A.823.823,0,0,0,405.422,196.878Z" transform="translate(-337.681 -184.709)" fill="#408463"/>
              <path id="Path_139711" data-name="Path 139711" d="M373.495,225.291a13.609,13.609,0,0,0,8,3.14c1.24.065,3.5.4,3.429-1.087" transform="translate(-338.333 -187.184)" fill="none" stroke="#ea8f18" stroke-miterlimit="10" stroke-width="1"/>
              <path id="Path_139712" data-name="Path 139712" d="M345.764,315.438c-5.7-.645-9.886-5.2-10.612-8.421a3.841,3.841,0,0,1,.979-3.815c1.384-1.257,3.853-1.449,5.9-1a33.461,33.461,0,0,1,5.69,2.213c8.89,3.733,19.585,3.148,29.687,3.142a17.692,17.692,0,0,1,5.2.532,8.586,8.586,0,0,1,5.253,4.693,18,18,0,0,1,1.207,6.327,2.378,2.378,0,0,1-.991,2.3,2.728,2.728,0,0,1-3.04-.444A17.092,17.092,0,0,1,383.1,318.6c-2.641-3.051-8.147-3.411-12.874-3.33C362.65,315.4,345.764,315.438,345.764,315.438Z" transform="translate(-335.02 -193.789)" fill="#00021c"/>
              <path id="Path_139713" data-name="Path 139713" d="M411.965,283.78c2.838,0,7.779.381,10.617.383.345,0,.773-.468,1.053-.67.323-.233,1.033-1.084,1.339-1.339,1.148-.957,1.483-1.705,3.115-1.124a3.553,3.553,0,0,1,2.132,4.2,1.568,1.568,0,0,0-.123.893c.178.568.982.593,1.546.4,3.044-1.016,4.461-5.121,2.9-7.922a6.491,6.491,0,0,0-8.382-2.345c-.775.4-1.468.951-2.257,1.321a11.192,11.192,0,0,1-3.973.781,26.849,26.849,0,0,1-6.144-.419,24.4,24.4,0,0,1-5.07-1.148" transform="translate(-341.366 -191.516)" fill="#f7b094"/>
              <g id="Group_36335" data-name="Group 36335" transform="translate(21.728 38.223)">
                <path id="Path_139714" data-name="Path 139714" d="M408.143,279.335a.5.5,0,0,1-.48.565,110.9,110.9,0,0,1-17.32-.888,54.039,54.039,0,0,1-12.889-3.169c-3.121-1.243-7.422-5.744-9.157-9.945-3.031-7.344-5.593-13.039-7.636-20.717-1.392-5.227-2.966-9.793-.79-14.93.509-1.2,2.355-2.91,4.591-4a7.211,7.211,0,0,1,9.086,1.91c1.832,2.5,3.3,8.212,3.835,11.264,1.13,6.436,1.273,11.739,2.4,18.174.5,2.859,1.141,5.965,3.37,7.827a12.5,12.5,0,0,0,4.5,2.056c6.426,1.951,12.74,3.18,19.162,5.11a.5.5,0,0,1,.347.4Z" transform="translate(-358.795 -225.418)" fill="#efb93f"/>
                <path id="Path_139715" data-name="Path 139715" d="M409.575,283.02a26.759,26.759,0,0,0-.621-6.1c-.761-2.285-6.069-2.771-8.42-3.3q-5.268-1.182-10.426-2.8a15.876,15.876,0,0,1-5.655-2.7c-1.962-1.662-3.6-4.406-6.168-4.195" transform="translate(-360.473 -228.734)" fill="none" stroke="#ea8f18" stroke-miterlimit="10" stroke-width="1"/>
                <path id="Path_139716" data-name="Path 139716" d="M380.631,267.027c1.03.132,1.963.317,2.993.449" transform="translate(-360.675 -229.002)" fill="none" stroke="#ea8f18" stroke-miterlimit="10" stroke-width="1"/>
                <path id="Path_139717" data-name="Path 139717" d="M382.2,263.6c-1.565-2.17-1.505-5-1.862-7.647-1.049-7.809-1.432-16.124-4.031-23.562-1.186-3.4-2.894-6.614-7.443-6.82" transform="translate(-359.662 -225.431)" fill="none" stroke="#ea8f18" stroke-miterlimit="10" stroke-width="1"/>
              </g>
            </g>
            <g id="Group_36337" data-name="Group 36337" transform="translate(49.808 164.462)">
              <path id="Path_139718" data-name="Path 139718" d="M416.151,372.527c-4.2.133-7.648.237-11.851.369a8,8,0,0,1-3.777-.491c-.628-.308-1.254-.8-1.949-.674-.538.1-.918.548-1.412.77a3.584,3.584,0,0,1-1.415.215l-4.409.07a2.117,2.117,0,0,1-1.384-.3,1.726,1.726,0,0,1-.425-1.488,22.054,22.054,0,0,1,1.235-6.187,1.558,1.558,0,0,1,.889-1.1,1.866,1.866,0,0,1,1.328.327c1.661.878,3.846,1.5,5.386.452a6.2,6.2,0,0,1,1.191-.823,3.1,3.1,0,0,1,1.622-.015,56.5,56.5,0,0,1,13.449,4.135,5.792,5.792,0,0,1,2.539,1.787,1.915,1.915,0,0,1-.377,2.687" transform="translate(-389.521 -363.552)" fill="#2a232d"/>
            </g>
          </g>
        </g>
      </g>
      <g id="Group_36380" data-name="Group 36380" transform="translate(24.702 149.983)">
        <g id="Group_36349" data-name="Group 36349" transform="translate(2.002 53.947)">
          <g id="Group_36346" data-name="Group 36346">
            <g id="Group_36341" data-name="Group 36341" transform="translate(34.284 4.95)">
              <path id="Path_139719" data-name="Path 139719" d="M66.441,232.912a7.863,7.863,0,0,0,2.637,2.2A5.363,5.363,0,0,0,72.3,236a4.817,4.817,0,0,0,2.815-2.2l10.5-13.916c-6.065,1.478-12.325,3.045-17.166,6.725a6.941,6.941,0,0,0-2.187,2.4c-.462.973-.767,2.764-.063,3.627Z" transform="translate(-64.525 -219.88)" fill="#6ea652"/>
              <path id="Path_139720" data-name="Path 139720" d="M64.706,249.98a22.525,22.525,0,0,1,2.957-15.3,24.487,24.487,0,0,1,12.466-10.1" transform="translate(-64.407 -220.284)" fill="none" stroke="#83ba63" stroke-miterlimit="10" stroke-width="1"/>
            </g>
            <path id="Path_139721" data-name="Path 139721" d="M66.668,265.415H51.833l-4.7-15.165H70.9Z" transform="translate(-28.636 -217.546)" fill="#edc2af"/>
            <rect id="Rectangle_1174" data-name="Rectangle 1174" width="27.008" height="2.467" transform="translate(16.875 31.906)" fill="#d2ab94"/>
            <g id="Group_36342" data-name="Group 36342" transform="translate(9.452 22.992)">
              <path id="Path_139722" data-name="Path 139722" d="M38.572,267.631c-1.172-8.1-2.324-16.516.042-24.342a5.785,5.785,0,0,1,1.279-2.491,4.959,4.959,0,0,1,3.518-1.174,11.584,11.584,0,0,1,8.952,4.248,6.417,6.417,0,0,1,1.555,3.419,6.242,6.242,0,0,1-1.937,4.644,31.45,31.45,0,0,1-4.034,3.2,29.111,29.111,0,0,0-9.486,12.5" transform="translate(-37.235 -239.623)" fill="#83ba63"/>
              <path id="Path_139723" data-name="Path 139723" d="M39.206,265.529a43.622,43.622,0,0,1,4.263-17.066c1.2-2.488,2.794-5,5.306-6.089a6.7,6.7,0,0,1,6.446.7,6.89,6.89,0,0,1,2.793,5.925" transform="translate(-37.405 -239.814)" fill="none" stroke="#6ea652" stroke-miterlimit="10" stroke-width="1"/>
            </g>
            <g id="Group_36343" data-name="Group 36343">
              <path id="Path_139724" data-name="Path 139724" d="M56.478,230.116a10.77,10.77,0,0,1-3.1,3.76c-1.254.971-2.648,1.99-4.231,1.93-1.764-.066-3.181-1.438-4.413-2.724L26.893,214.464c8.715,1.033,17.722,2.161,25.287,6.691a10.56,10.56,0,0,1,3.6,3.141c.874,1.353,1.727,3.95.968,5.363Z" transform="translate(-26.893 -214.464)" fill="#6ea652"/>
              <path id="Path_139725" data-name="Path 139725" d="M59.975,247.12A28.452,28.452,0,0,0,53.905,229.9,28.029,28.029,0,0,0,38.618,220.1" transform="translate(-27.903 -214.949)" fill="none" stroke="#83ba63" stroke-miterlimit="10" stroke-width="1"/>
            </g>
            <g id="Group_36344" data-name="Group 36344" transform="translate(36.215 29.522)">
              <path id="Path_139726" data-name="Path 139726" d="M72.289,247.49c-1.312-.531-2.748.855-2.738,2.206a6.162,6.162,0,0,0,1.809,3.6l5.946,7.231a10.808,10.808,0,0,0-2.565-13.087c-.814-.693-2.456-1.054-2.69-.046" transform="translate(-66.781 -246.767)" fill="#6ea652"/>
              <path id="Path_139727" data-name="Path 139727" d="M66.52,249.117a3.735,3.735,0,0,1,2.049-1.871,3.849,3.849,0,0,1,3.853.852,9.189,9.189,0,0,1,2.16,3.046,19.437,19.437,0,0,1,1.671,5.545" transform="translate(-66.52 -246.791)" fill="none" stroke="#83ba63" stroke-miterlimit="10" stroke-width="1"/>
            </g>
            <g id="Group_36345" data-name="Group 36345" transform="translate(18.795 47.349)">
              <path id="Path_139728" data-name="Path 139728" d="M72.634,394.428l-.77.074-3.14-127.926.77-.074Z" transform="translate(-49.29 -266.294)" fill="#38303b"/>
              <path id="Path_139729" data-name="Path 139729" d="M48.06,394.428l.77.074,3.14-127.926-.77-.074Z" transform="translate(-47.51 -266.294)" fill="#38303b"/>
              <rect id="Rectangle_1175" data-name="Rectangle 1175" width="23.123" height="2.197" rx="0.867" fill="#38303b"/>
            </g>
          </g>
          <g id="Group_36348" data-name="Group 36348" transform="translate(142.034 101.754)">
            <g id="Group_36347" data-name="Group 36347">
              <path id="Path_139730" data-name="Path 139730" d="M207.131,380.574q-.071-4.466-.143-8.932a11.18,11.18,0,0,0-.611-4.208,4.012,4.012,0,0,0-3.236-2.571,13.663,13.663,0,0,1-2.1.008c-1.727-.377-1.446-3.188-1.818-4.867-1.023-4.623-4.978-8.061-9.3-10.252a7.355,7.355,0,0,0-4.813-.93c-1.627.363-3.053,1.894-2.762,3.491.212,1.156,1.2,2.022,1.694,3.1,1.117,2.438-.429,5.657,1.252,7.77,1.729,2.174,5.933,1.813,6.909,4.39a15.7,15.7,0,0,1,.329,2.7,5.723,5.723,0,0,0,3.338,3.725c1.566.773,3.3,1.172,4.9,1.886a13.09,13.09,0,0,1,5.993,5.414" transform="translate(-182.31 -327.778)" fill="#6ea652"/>
              <path id="Path_139731" data-name="Path 139731" d="M203.343,382.829a16.614,16.614,0,0,0-2.6-11.578c-1.942-2.893-3.359-4.041-5.229-6.964-1.47-2.3-2.245-4.951-3.493-7.37s-3.177-4.736-5.875-5.4" transform="translate(-182.64 -328.02)" fill="none" stroke="#83ba63" stroke-miterlimit="10" stroke-width="1"/>
              <path id="Path_139732" data-name="Path 139732" d="M210.7,379.075q.1-4.753.191-9.5a12.249,12.249,0,0,1,.653-4.481,4.229,4.229,0,0,1,3.366-2.751,13.944,13.944,0,0,0,2.176,0c1.792-.409,2.258-2.674,2.651-4.463a17.7,17.7,0,0,1,8.94-11.679,7.5,7.5,0,0,1,4.993-1.013c1.684.377,3.155,2,2.845,3.7-.225,1.231-1.256,2.157-1.77,3.3-1.169,2.6.418,6.016-1.334,8.272-1.8,2.321-6.157,1.959-7.179,4.7a17.11,17.11,0,0,0-.354,2.875,6.123,6.123,0,0,1-3.477,3.981c-1.627.83-3.426,1.263-5.083,2.031a13.872,13.872,0,0,0-6.235,5.789" transform="translate(-184.755 -327.465)" fill="#6ea652"/>
              <path id="Path_139733" data-name="Path 139733" d="M211.655,379.656c-.459-3.649,1.66-7.139,4.156-9.842s5.479-5.008,7.431-8.126c1.535-2.451,2.351-5.279,3.655-7.859s3.314-5.055,6.114-5.778" transform="translate(-184.832 -327.722)" fill="none" stroke="#83ba63" stroke-miterlimit="10" stroke-width="1"/>
              <path id="Path_139734" data-name="Path 139734" d="M208.8,374.708l-6.3-9.449a14.607,14.607,0,0,1-2.414-4.832,4.958,4.958,0,0,1,1.44-4.946,16.556,16.556,0,0,0,2.145-1.456c1.487-1.6.4-4.132-.433-6.149a20.784,20.784,0,0,1,.842-17.427,8.841,8.841,0,0,1,4.23-4.328c1.918-.756,4.476-.147,5.332,1.728.62,1.358.234,2.954.508,4.42.622,3.331,4.519,5.623,4.333,9.006-.193,3.481-4.733,6.033-3.868,9.411a20.483,20.483,0,0,0,1.614,3.056c.886,1.976.324,4.623-.714,6.525s-2.854,2.632-3.964,4.493c-1.751,2.936-1.595,6.388-1.257,9.791" transform="translate(-183.829 -325.806)" fill="#83ba63"/>
              <path id="Path_139735" data-name="Path 139735" d="M210.066,375.181a22.917,22.917,0,0,1-1.82-12.726c.461-3.175,1.591-6.244,1.8-9.445.271-4.155-1.023-8.231-1.633-12.351s-.395-8.737,2.361-11.859" transform="translate(-184.524 -326.064)" fill="none" stroke="#6ea652" stroke-miterlimit="10" stroke-width="1"/>
            </g>
            <path id="Path_139736" data-name="Path 139736" d="M215.474,404.422H200.621l-4.707-27.335h23.8Z" transform="translate(-183.482 -330.222)" fill="#edc2af"/>
            <rect id="Rectangle_1176" data-name="Rectangle 1176" width="27.041" height="4.446" transform="translate(10.81 45.427)" fill="#d2ab94"/>
          </g>
        </g>
        <line id="Line_282" data-name="Line 282" x2="205.566" transform="translate(0 230.134)" fill="none" stroke="#606060" stroke-miterlimit="10" stroke-width="1"/>
        <g id="Group_36379" data-name="Group 36379" transform="translate(63.783)">
          <g id="Group_36351" data-name="Group 36351" transform="translate(8.644 99.087)">
            <path id="Path_139737" data-name="Path 139737" d="M163.924,388.208q-.455,2.821-.911,5.643a3.845,3.845,0,0,0-.071,1.1c.184,1.437,1.829,2.217,2.464,3.522a.859.859,0,0,1,.111.443c-.044.491-.689.639-1.187.657l-4.371.162c-.55.02-1.2-.007-1.508-.461a1.606,1.606,0,0,1-.206-.7q-.706-5.331-1.411-10.661" transform="translate(-108.507 -274.541)" fill="#f7b094"/>
            <g id="Group_36350" data-name="Group 36350" transform="translate(0 113.377)">
              <path id="Path_139738" data-name="Path 139738" d="M121.1,388.208q.448,2.821.9,5.643a3.944,3.944,0,0,1,.07,1.1c-.182,1.437-1.8,2.217-2.425,3.522a.866.866,0,0,0-.109.443c.043.491.678.639,1.168.657l4.3.162c.541.02,1.182-.007,1.482-.461a1.6,1.6,0,0,0,.2-.7q.7-5.331,1.389-10.661" transform="translate(-105.295 -387.918)" fill="#f7b094"/>
              <path id="Path_139739" data-name="Path 139739" d="M105.13,406.288c3.569.136,6.492.244,10.06.38a6.336,6.336,0,0,0,3.209-.436c.535-.28,1.067-.728,1.658-.609.457.092.777.5,1.2.71a2.831,2.831,0,0,0,1.2.2l3.742.08a1.7,1.7,0,0,0,1.176-.269,1.661,1.661,0,0,0,.366-1.359,21.541,21.541,0,0,0-1.028-5.662c-.135-.417-.335-.881-.751-1.012a1.5,1.5,0,0,0-1.129.294c-1.414.8-3.27,1.363-4.575.4a5.22,5.22,0,0,0-1.008-.757,2.445,2.445,0,0,0-1.376-.019,45.5,45.5,0,0,0-11.433,3.734,4.941,4.941,0,0,0-2.16,1.626,1.842,1.842,0,0,0,.311,2.458" transform="translate(-103.953 -388.798)" fill="#38303b"/>
              <path id="Path_139740" data-name="Path 139740" d="M113.1,399.557a3.006,3.006,0,0,1,1.134,2.1" transform="translate(-104.741 -388.92)" fill="none" stroke="#4c9374" stroke-miterlimit="10" stroke-width="1"/>
              <path id="Path_139741" data-name="Path 139741" d="M116.624,398.419a6.075,6.075,0,0,1,1.528,2.631" transform="translate(-105.044 -388.822)" fill="none" stroke="#4c9374" stroke-miterlimit="10" stroke-width="1"/>
            </g>
            <path id="Path_139742" data-name="Path 139742" d="M178.46,406.41c-3.569.136-6.492.244-10.06.38a6.347,6.347,0,0,1-3.209-.436c-.534-.28-1.067-.728-1.657-.609-.458.092-.778.5-1.2.709a2.846,2.846,0,0,1-1.2.2l-3.742.08a1.7,1.7,0,0,1-1.176-.269,1.659,1.659,0,0,1-.365-1.359,21.5,21.5,0,0,1,1.027-5.662c.135-.417.335-.881.751-1.012a1.5,1.5,0,0,1,1.13.294c1.413.8,3.269,1.363,4.574.4a5.22,5.22,0,0,1,1.008-.757,2.441,2.441,0,0,1,1.377-.019,45.506,45.506,0,0,1,11.432,3.734,4.932,4.932,0,0,1,2.16,1.625,1.843,1.843,0,0,1-.311,2.459" transform="translate(-108.422 -275.432)" fill="#38303b"/>
            <path id="Path_139743" data-name="Path 139743" d="M172.623,399.679a3.006,3.006,0,0,0-1.134,2.1" transform="translate(-109.769 -275.554)" fill="none" stroke="#4c9374" stroke-miterlimit="10" stroke-width="1"/>
            <path id="Path_139744" data-name="Path 139744" d="M169.064,398.541a6.087,6.087,0,0,0-1.528,2.63" transform="translate(-109.429 -275.456)" fill="none" stroke="#4c9374" stroke-miterlimit="10" stroke-width="1"/>
            <path id="Path_139745" data-name="Path 139745" d="M134.3,292.716h1.513l10.432,43.617,5.544,41.66a.589.589,0,0,0,.566.511l8.766.245a.742.742,0,0,0,.759-.78l-2.065-43.393-7.631-56.961L149.4,264.431l-31.624-.573L115.315,282l1.607,54.89,2.705,41.409a.8.8,0,0,0,.823.749l7.34-.252a.8.8,0,0,0,.77-.774l1.45-41.384Z" transform="translate(-104.932 -263.858)" fill="#38303b"/>
            <path id="Path_139746" data-name="Path 139746" d="M115.551,282.4a16.085,16.085,0,0,0,4.363-8.175" transform="translate(-104.952 -264.751)" fill="none" stroke="#dedfe0" stroke-miterlimit="10" stroke-width="0.709" opacity="0.34"/>
            <path id="Path_139747" data-name="Path 139747" d="M139.066,267.857a.279.279,0,0,0-.557,0q.1,3.4.037,6.8c-.021,1.072-.007,2.165-.116,3.232-.092.9-.558,2.082-1.634,2l-.225-13.195c-.006-.39-.607-.353-.6.035q.141,8.292.282,16.583c.006.39.608.353.6-.036l-.048-2.83a2.085,2.085,0,0,0,1.98-1.533,5.444,5.444,0,0,0,.236-1.52c.031-.635.047-1.272.063-1.908Q139.183,271.671,139.066,267.857Z" transform="translate(-106.71 -264.079)" fill="#b7b7b7" opacity="0.42"/>
            <path id="Path_139748" data-name="Path 139748" d="M150.019,274.113c1.178,3.206,2.893,6.424,5.806,8.187" transform="translate(-107.92 -264.741)" fill="none" opacity="0.34"/>
            <path id="Path_139749" data-name="Path 139749" d="M155.3,385.3c2.855.109,6.3.025,9.362.043" transform="translate(-108.375 -274.316)" fill="none" stroke="#dedfe0" stroke-miterlimit="10" stroke-width="0.709" opacity="0.34"/>
            <path id="Path_139750" data-name="Path 139750" d="M120.462,386.214c2.545-.033,5.52-.215,8.245-.36" transform="translate(-105.375 -274.364)" fill="none" stroke="#dedfe0" stroke-miterlimit="10" stroke-width="0.709" opacity="0.34"/>
          </g>
          <g id="Group_36364" data-name="Group 36364" transform="translate(20.488)">
            <path id="Path_139751" data-name="Path 139751" d="M146.755,170.891c0,7.056-5.793,16.493-13.128,16.493s-12.976-9.167-12.976-16.222,5.641-10.274,12.976-10.274S146.755,163.836,146.755,170.891Z" transform="translate(-117.235 -155.904)" fill="#38303b"/>
            <g id="Group_36354" data-name="Group 36354" transform="translate(10.653 30.523)">
              <g id="Group_36352" data-name="Group 36352" transform="translate(0 0.773)">
                <path id="Path_139752" data-name="Path 139752" d="M140.486,203.669a78.745,78.745,0,0,1-2.23-12.274,1.178,1.178,0,0,0-.076-.392.556.556,0,0,0-.441-.29c-1.38-.279-2.8.092-4.173-.252-1.122-.281-2.239-1.038-3.353-.693a.513.513,0,0,0-.305.209,1.126,1.126,0,0,0-.105.55c-.018.857-.008,1.714,0,2.572.029,2.617-1.262,9.5-1.233,12.116" transform="translate(-128.57 -189.679)" fill="#f7b094"/>
              </g>
              <g id="Group_36353" data-name="Group 36353" transform="translate(1.068)">
                <path id="Path_139753" data-name="Path 139753" d="M129.853,189.131a.513.513,0,0,1,.306-.209c1.113-.345,2.231.411,3.353.693,1.373.345,2.792-.027,4.173.252a.556.556,0,0,1,.441.29,1.182,1.182,0,0,1,.076.392c.109,1.375.421,2.619.53,3.995a7.607,7.607,0,0,1-4.017,1.831,5.454,5.454,0,0,1-4.952-2.9l-.014-1.22c-.009-.857-.019-1.714,0-2.572A1.126,1.126,0,0,1,129.853,189.131Z" transform="translate(-129.739 -188.833)" fill="#e89c82"/>
              </g>
            </g>
            <g id="Group_36359" data-name="Group 36359" transform="translate(4.332 8.879)">
              <g id="Group_36355" data-name="Group 36355" transform="translate(1.897)">
                <path id="Path_139754" data-name="Path 139754" d="M123.73,178.893c0,7.823,5.4,14.164,10.208,14.164s10.209-6.341,10.209-14.164-5.4-13.743-10.209-13.743S123.73,171.07,123.73,178.893Z" transform="translate(-123.73 -165.15)" fill="#f7b094"/>
              </g>
              <g id="Group_36358" data-name="Group 36358" transform="translate(0 11.412)">
                <g id="Group_36356" data-name="Group 36356">
                  <path id="Path_139755" data-name="Path 139755" d="M124.11,183.017a3.38,3.38,0,0,1-2.449-2.788,2.406,2.406,0,0,1,2.324-2.588" transform="translate(-121.654 -177.637)" fill="#f7b094"/>
                </g>
                <g id="Group_36357" data-name="Group 36357" transform="translate(21.438)">
                  <path id="Path_139756" data-name="Path 139756" d="M145.112,183.017a3.38,3.38,0,0,0,2.449-2.788,2.407,2.407,0,0,0-2.325-2.588" transform="translate(-145.112 -177.637)" fill="#f7b094"/>
                </g>
              </g>
            </g>
            <path id="Path_139757" data-name="Path 139757" d="M139.961,178.271c0,.788.348,1.427.778,1.427s.779-.639.779-1.427-.348-1.427-.779-1.427S139.961,177.483,139.961,178.271Z" transform="translate(-118.898 -157.278)" fill="#38303b"/>
            <path id="Path_139758" data-name="Path 139758" d="M128.9,178.348c0,.788.348,1.427.778,1.427s.779-.639.779-1.427-.348-1.427-.779-1.427S128.9,177.56,128.9,178.348Z" transform="translate(-117.945 -157.284)" fill="#38303b"/>
            <path id="Path_139759" data-name="Path 139759" d="M138.885,177.1a5.8,5.8,0,0,1,1.813-.224,4.981,4.981,0,0,1,1.721.261" transform="translate(-118.806 -157.281)" fill="none" stroke="#38303b" stroke-miterlimit="10" stroke-width="0.709"/>
            <path id="Path_139760" data-name="Path 139760" d="M131.324,177.1a5.8,5.8,0,0,0-1.813-.224,4.983,4.983,0,0,0-1.722.261" transform="translate(-117.85 -157.281)" fill="none" stroke="#38303b" stroke-miterlimit="10" stroke-width="0.709"/>
            <g id="Group_36360" data-name="Group 36360" transform="translate(8.613 17.193)">
              <path id="Path_139761" data-name="Path 139761" d="M126.356,175.366a.086.086,0,0,0,.1.137c.112-.053.144-.177.456-.331a5.333,5.333,0,0,1,3.832-.182,6.944,6.944,0,0,0,.675.272c.1.019.207-.052.207-.11a.313.313,0,0,0-.091-.187,1.93,1.93,0,0,0-.879-.5,4.911,4.911,0,0,0-3.442.2,1.855,1.855,0,0,0-.846.689" transform="translate(-126.338 -174.247)" fill="#38303b"/>
              <path id="Path_139762" data-name="Path 139762" d="M143.4,175.366a.086.086,0,0,1-.1.137c-.112-.053-.144-.177-.456-.331a5.333,5.333,0,0,0-3.832-.182,6.944,6.944,0,0,1-.675.272c-.1.019-.207-.052-.207-.11a.308.308,0,0,1,.091-.187,1.93,1.93,0,0,1,.879-.5,4.911,4.911,0,0,1,3.442.2,1.859,1.859,0,0,1,.846.689" transform="translate(-127.353 -174.247)" fill="#38303b"/>
            </g>
            <path id="Path_139763" data-name="Path 139763" d="M131.851,187.466" transform="translate(-118.2 -158.192)" fill="#e66e60"/>
            <path id="Path_139764" data-name="Path 139764" d="M135.449,177.6q.436,3.485.873,6.969a.2.2,0,0,1-.243.278l-1.463-.043" transform="translate(-118.438 -157.343)" fill="none" stroke="#e89c82" stroke-miterlimit="10" stroke-width="1"/>
            <path id="Path_139765" data-name="Path 139765" d="M142.208,163.1c-3.565-3.6-14.291-3.515-15.074-3.41a6.729,6.729,0,0,1-1.746-.068l-5.653-.718a.768.768,0,0,0-.6.1c-.3.237-.291.766-.212,1.176a5.8,5.8,0,0,0,2.387,3.791,5.861,5.861,0,0,1-4.327-.268,4.444,4.444,0,0,0,1.109,3.735,5.4,5.4,0,0,0,3.1,1.522,10,10,0,0,0,7.285-1.692,1.622,1.622,0,0,0,.22,2.161,2.344,2.344,0,0,0,2,.253,11.789,11.789,0,0,0,4.336-1.906,1.925,1.925,0,0,0,1.11,2.276,3.043,3.043,0,0,0,2.4-.472,11.1,11.1,0,0,0,3.23-2.78" transform="translate(-116.913 -155.731)" fill="#38303b"/>
            <g id="Group_36363" data-name="Group 36363" transform="translate(13.074 29.921)">
              <g id="Group_36361" data-name="Group 36361" transform="translate(0.18 0.082)">
                <path id="Path_139766" data-name="Path 139766" d="M131.449,188.375c1.353,1.8,2.79,2.348,4.664,1.872a5.115,5.115,0,0,0,2.263-1.964,7.6,7.6,0,0,1-6.959-.018" transform="translate(-131.416 -188.264)" fill="#e66e60"/>
              </g>
              <g id="Group_36362" data-name="Group 36362">
                <path id="Path_139767" data-name="Path 139767" d="M131.432,188.367a7.555,7.555,0,0,0,5.733.61,2.243,2.243,0,0,0,1.367-.761,13.565,13.565,0,0,1-7.313-.042Z" transform="translate(-131.219 -188.174)" fill="#fff"/>
              </g>
            </g>
            <path id="Path_139768" data-name="Path 139768" d="M142.6,164.649c-1.647-2.955-8.767-6.208-9.305-6.394a6.51,6.51,0,0,1-1.142-.572l-3.6-2.108a.7.7,0,0,0-.419-.137c-.244.031-.345.306-.373.542a3.583,3.583,0,0,0,.828,2.691,5.611,5.611,0,0,1-2.812-1.468,2.226,2.226,0,0,0-.005,2.269,4.838,4.838,0,0,0,1.75,1.739,8.913,8.913,0,0,0,5.16,1.366c-.471.119-.566.776-.282,1.183a2.234,2.234,0,0,0,1.273.746,9.6,9.6,0,0,0,3.25.348,1.1,1.1,0,0,0,.284,1.517,2.742,2.742,0,0,0,1.682.494,7.213,7.213,0,0,0,2.69-.443" transform="translate(-117.649 -155.434)" fill="#38303b"/>
          </g>
          <path id="Path_139769" data-name="Path 139769" d="M101.605,221.261A144.6,144.6,0,0,0,95.8,235.326a18.944,18.944,0,0,0-1.3,5.289c-.049,1.735.539,4.3,2.029,4.857,2.206.832,7.052,1.345,8.264-1.132,3.62-7.392,5.036-10.886,8.256-17.4" transform="translate(-94.495 -161.103)" fill="#f7b094"/>
          <path id="Path_139770" data-name="Path 139770" d="M164.014,218.65c3.053,5.151,5.356,8.261,7.491,12.827a27.576,27.576,0,0,1,2.254,5.779,6,6,0,0,1-2.617,5.5c-2.112,1.049-5.4,1.311-6.853-1.033-4.345-6.991-6.839-12.2-10.7-18.365" transform="translate(-99.584 -160.878)" fill="#f7b094"/>
          <path id="Path_139771" data-name="Path 139771" d="M141.595,202.426c-.1-.048-.192-.091-.287-.129a22.171,22.171,0,0,0-18.1-.569c-.028.011-.057.018-.085.03a20.986,20.986,0,0,0-13.108,19.295h43.231A20.915,20.915,0,0,0,141.595,202.426Z" transform="translate(-95.832 -159.278)" fill="#f7b094"/>
          <g id="tshirt" transform="translate(3.31 39.976)">
            <path id="tshirt-2" data-name="tshirt" d="M164.19,223.02a27.459,27.459,0,0,0-1.473-4.28c-2.022-5.729-6.536-9.646-8.641-11.575a21.384,21.384,0,0,0-1.865-1.357,20.165,20.165,0,0,0-3.18-1.871,48.464,48.464,0,0,0-10.742-3.281l.053-.133c-.093.03-.18.061-.27.091-.157-.029-.316-.063-.472-.091-.311-.057-.306.774-.595,1.141-1.767.761-.213,1.342-1.191,1.623-.515.084-3.2.529-3.571.542-.371-.013-1.865-.133-2.381-.217-.978-.282-2.021-1.079-3.788-1.84-.289-.367-.447-1.139-.758-1.083-.156.028.923-.1.766-.075-.089-.03-.175-.061-.269-.091l-4.534.966a31.694,31.694,0,0,0-9.959,4.51c-.276.188-.553.388-.819.6-4.145,3.041-6.686,7.125-9.064,12.139a19.542,19.542,0,0,0-1.473,4.28c-.176,2.239,1.557,4.036,3.227,5.537a23.164,23.164,0,0,0,6.584,4.16l.082-.085c.389-.491.756-.638,1.089-1.146q.073.877.186,1.777.918,13.755,2.771,27.421c.133.969.38,2.1,1.248,2.488a3.585,3.585,0,0,0,1.541.07c11.8-.184,21.543.273,31.855-.31a1.722,1.722,0,0,0,1.059-.451c.379-.352.759,1.288.818.764,1.407-12.555,1.84-20.239,2.557-29.661q.14-1.064.225-2.1c.334.508.7.655,1.09,1.146l.081.085a23.168,23.168,0,0,0,6.585-4.16C162.633,227.056,164.366,225.259,164.19,223.02Z" transform="translate(-98.274 -199.293)" fill="#f2e2c8"/>
            <g id="light_decoration" data-name="light decoration">
              <g id="Group_36372" data-name="Group 36372">
                <g id="Group_36365" data-name="Group 36365" transform="translate(0 21.622)">
                  <path id="Path_139772" data-name="Path 139772" d="M98.171,224.171c2.132,5.276,6.686,8.9,11.506,11.643a1.054,1.054,0,0,0,1.064-1.82c-4.282-2.437-8.63-5.664-10.537-10.384a1.086,1.086,0,0,0-1.3-.736,1.061,1.061,0,0,0-.737,1.3Z" transform="translate(-98.116 -222.836)" fill="#4c9374"/>
                </g>
                <g id="Group_36366" data-name="Group 36366" transform="translate(54.524 22.543)">
                  <path id="Path_139773" data-name="Path 139773" d="M159.365,235.785c4.566-2.467,9.341-5.388,11.476-10.364a1.09,1.09,0,0,0-.378-1.442,1.061,1.061,0,0,0-1.441.378c-2,4.668-6.44,7.3-10.72,9.608-1.194.645-.131,2.466,1.064,1.82Z" transform="translate(-157.778 -223.844)" fill="#4c9374"/>
                </g>
                <g id="Group_36367" data-name="Group 36367" transform="translate(25.709)">
                  <path id="Path_139774" data-name="Path 139774" d="M126.268,200.573c-.365,2.476,4.319,4.417,7.144,4.645,3.152.254,6.647-1.148,7.953-4.2a1.09,1.09,0,0,0-.377-1.442,1.061,1.061,0,0,0-1.442.378,5.574,5.574,0,0,1-5.228,3.189,10.77,10.77,0,0,1-3.836-.721c-.617-.225-1.97-.829-2.183-1.847-.11-.521,0-.947-.528-1.258a.813.813,0,0,0-1.217.365Z" transform="translate(-126.248 -199.177)" fill="#4c9374"/>
                </g>
                <g id="Group_36368" data-name="Group 36368" transform="translate(12.299 13.686)">
                  <path id="Path_139775" data-name="Path 139775" d="M112.2,233.688q-.182-7.518.109-15.037.084-2.118.2-4.233c.02-.354-.53-.353-.55,0q-.425,7.507-.378,15.033.014,2.119.066,4.238a.275.275,0,0,0,.55,0Z" transform="translate(-111.574 -214.153)" fill="#4c9374"/>
                </g>
                <g id="Group_36369" data-name="Group 36369" transform="translate(12.949 6.351)">
                  <path id="Path_139776" data-name="Path 139776" d="M112.82,211.517a29,29,0,0,1,1.272-5.056c.117-.334-.413-.478-.53-.145a28.974,28.974,0,0,0-1.272,5.055c-.055.345.475.494.53.146Z" transform="translate(-112.286 -206.127)" fill="#4c9374"/>
                </g>
                <g id="Group_36370" data-name="Group 36370" transform="translate(52.905 14.058)">
                  <path id="Path_139777" data-name="Path 139777" d="M158.479,233.535q-.485-7.342-1.392-14.65-.258-2.064-.547-4.126c-.048-.348-.578-.2-.53.146q1.013,7.217,1.613,14.485.17,2.071.307,4.144c.023.352.573.354.549,0Z" transform="translate(-156.007 -214.561)" fill="#4c9374"/>
                </g>
                <g id="Group_36371" data-name="Group 36371" transform="translate(51.29 5.441)">
                  <path id="Path_139778" data-name="Path 139778" d="M156.063,210.648a19.059,19.059,0,0,0-1.273-5.333c-.13-.325-.662-.184-.53.145a18.6,18.6,0,0,1,1.254,5.187c.032.349.582.353.549,0Z" transform="translate(-154.239 -205.131)" fill="#4c9374"/>
                </g>
              </g>
            </g>
          </g>
          <rect id="Rectangle_1177" data-name="Rectangle 1177" width="36.958" height="4.122" transform="translate(18.736 101.7)" fill="#f2e2c8"/>
          <g id="Group_36375" data-name="Group 36375" transform="translate(31.007 69.703)">
            <g id="Group_36374" data-name="Group 36374">
              <rect id="Rectangle_1178" data-name="Rectangle 1178" width="11.63" height="25.246" rx="1.97" transform="matrix(1, -0.013, 0.013, 1, 0, 0.154)" fill="#4c9374"/>
              <g id="Group_36373" data-name="Group 36373" transform="translate(5.081 2.67)" opacity="0.52">
                <path id="Path_139779" data-name="Path 139779" d="M136.135,236.484a1.182,1.182,0,1,1-.294-1.646A1.182,1.182,0,0,1,136.135,236.484Z" transform="translate(-133.983 -234.626)" fill="#fff"/>
                <path id="Path_139780" data-name="Path 139780" d="M135.9,236.326a.851.851,0,1,1-.212-1.184A.851.851,0,0,1,135.9,236.326Z" transform="translate(-134.014 -234.657)" fill="#dedfe0" opacity="0.54"/>
              </g>
            </g>
          </g>
          <g id="Group_36378" data-name="Group 36378" transform="translate(0.257 74.318)">
            <path id="Path_139781" data-name="Path 139781" d="M171.972,236.755c2.726,8-4.388,13.735-10.969,15.241a103.788,103.788,0,0,1-17.624,2.692c-1.254.09-3.066.478-3.895-.5s.2-1.511.408-2.713c.077-.454.846-1.016,2.977-1.613,7.924-2.217,13.751-5.562,21.255-9.738" transform="translate(-98.6 -236.755)" fill="#f7b094"/>
            <path id="Path_139782" data-name="Path 139782" d="M94.777,244.336c-.053,2.474,4.791,6.2,11.31,7.958a107.237,107.237,0,0,0,17.769,3.284c1.25.138,2.785.678,3.65-.265s-.145-1.517-.3-2.726c-.059-.458-.5-.622-2.61-1.3-7.833-2.52-14.153-6.463-21.714-10.078l-1.894,3.316-.885.815Z" transform="translate(-94.777 -237.139)" fill="#f7b094"/>
            <path id="Path_139783" data-name="Path 139783" d="M145.578,254.557c-.36.138-.971-.239-1.591-.658a11.307,11.307,0,0,0,.869-.836l.06-1.916a30.875,30.875,0,0,0-3.175-1.211q-.44-.173-.841-.328c-.106-.045-.213-.088-.318-.135l-.01.007c-1.286-.5-2.391-.921-3.989-1.553a2.054,2.054,0,0,0-.988-.208.807.807,0,0,0-.757.6c-.061.327.457.728.79.965.7.5,1.183.8,1.881,1.29.785.553,1.152.915.884,1.3l-.007-.006c-.451.544-7.445.338-8,.534-.317.111-.564.185-.436.554.256.738,2.1.382,2.965.568a24.293,24.293,0,0,0,3.114.532c.118.011.228.01.235.035a.884.884,0,0,1-.385.12,67.026,67.026,0,0,1-7.556.262.374.374,0,0,0-.29.616,4.428,4.428,0,0,0,2.572,1.081,23.989,23.989,0,0,0,4.925.2c-2.279.632-5.154.4-5.109.991a1.532,1.532,0,0,0,1.021.561h0a14.246,14.246,0,0,0,3.872.113l-.536.169a.928.928,0,0,0-.569.365.286.286,0,0,0,.19.45c1.141.289,6.953-.355,9.61-2.534a8.862,8.862,0,0,0,.88-.95A2.366,2.366,0,0,0,145.578,254.557Z" transform="translate(-97.633 -237.699)" fill="#f7b094"/>
            <g id="Group_36376" data-name="Group 36376" transform="translate(32.703 13.594)" opacity="0.55">
              <path id="Path_139784" data-name="Path 139784" d="M134.461,259.045c.332,0,1.778-.041,2.251-.119a6.541,6.541,0,0,0,1.753-.426c.427-.166.61-.45.592-.735-.024-.4-.589-.507-.853-.616a3.9,3.9,0,0,0,2.605-1.161,1.224,1.224,0,0,0,.261-.782c0-.513-.893-.765-1.4-.853a13.254,13.254,0,0,0-1.919-.165,9.471,9.471,0,0,0,1.493-.759c.355-.237.641-.374.734-.687a.755.755,0,0,0-.024-.71.8.8,0,0,0-.616-.355c-.527-.052-.142,0-.64-.048a.541.541,0,0,1-.07.616l-.854.213c-.409.493-5.248.368-6.728.355-.1.331-.619-.249-.457.07a2.671,2.671,0,0,0,.282.429,9.792,9.792,0,0,0,1.694.52,24.269,24.269,0,0,0,3.114.532c.118.011.855.059.863.084s-1.02.13-1.161.143c-1.207.109-2.237.111-3.418.155a4.89,4.89,0,0,1,.592,1.951c.869.038,1.751.032,2.625-.015a15.8,15.8,0,0,1-2.609.433c0,.43-.041.859-.043,1.287a24.209,24.209,0,0,0,2.439-.054l-.536.169C134.218,258.587,134.349,259.045,134.461,259.045Z" transform="translate(-130.561 -251.63)" fill="#e89c82"/>
            </g>
            <g id="Group_36377" data-name="Group 36377" transform="translate(24.411 10.392)">
              <path id="Path_139785" data-name="Path 139785" d="M127.75,256.64c-.825-.068-1.629-.13-2.441-.235-.536-.07.088-2.381-.464-2.5-.706-.155-2.595,1.857-3.357,1.565a2.306,2.306,0,0,0,.875,1.125c3.41,2.223,11.693,2.78,13.352,2.215" transform="translate(-121.488 -248.623)" fill="#f7b094"/>
              <path id="Path_139786" data-name="Path 139786" d="M122.212,251.728c1.407-.692,2.909-1.032,4.335-1.674,1.142.892.326,1.269,1.469,2.162a11.042,11.042,0,0,1,1.378.78,6.771,6.771,0,0,1,.515,1.725c-.421,1.433-.075,1.674.589,2.835a12.476,12.476,0,0,1-8.225-3.913" transform="translate(-121.55 -248.293)" fill="#f7b094"/>
              <path id="Path_139787" data-name="Path 139787" d="M124.842,250.655c2.328-.92,3.6-1.393,5.929-2.312a2.056,2.056,0,0,1,.988-.208.806.806,0,0,1,.757.6c.061.327-.457.728-.79.965-.7.5-1.183.8-1.881,1.29-.939.66-1.29,1.048-.662,1.524" transform="translate(-121.777 -248.127)" fill="#f7b094"/>
              <path id="Path_139788" data-name="Path 139788" d="M130.425,257c2.294,1.2,6.352.741,6.3,1.44A1.53,1.53,0,0,1,135.7,259c-3.662.473-9.336-2.05-13.34-3.158" transform="translate(-121.563 -248.791)" fill="#f7b094"/>
              <path id="Path_139789" data-name="Path 139789" d="M126.587,254.789l2.532-2.15c.451.544,7.325-.509,7.883-.313.318.111.564.184.436.553-.256.738-1.98,1.229-2.845,1.416a24.257,24.257,0,0,1-3.114.531c-.118.011-.228.011-.235.036a.886.886,0,0,0,.385.119,67.045,67.045,0,0,0,7.557.263.374.374,0,0,1,.289.616,4.428,4.428,0,0,1-2.572,1.081,27.612,27.612,0,0,1-8.509-.186l.4-1.822C128.067,254.917,127.334,254.872,126.587,254.789Z" transform="translate(-121.927 -248.486)" fill="#f7b094"/>
              <path id="Path_139790" data-name="Path 139790" d="M132.673,260.01c-1.141.29-6.953-.355-9.61-2.533a7.8,7.8,0,0,1-1.506-1.882c.608.313,2.311-.946,2.882-.754.447.15-.228,2.063.209,2.167.663.158,1.321.279,2,.406l5.649,1.783a.935.935,0,0,1,.57.364A.286.286,0,0,1,132.673,260.01Z" transform="translate(-121.494 -248.703)" fill="#f7b094"/>
            </g>
          </g>
        </g>
      </g>
    </g>
  </g>
</svg>
