<svg xmlns="http://www.w3.org/2000/svg" width="101.001" height="100.717" viewBox="0 0 101.001 100.717"><defs><style>.a{fill:#fa0;fill-rule:evenodd;}</style></defs><g transform="translate(-1.011 -0.086)"><path class="a" d="M4,15H67.288v6.329H4Z" transform="translate(15.927 79.474)"/><path class="a" d="M79.729,20.5a26.914,26.914,0,0,0-52.484,1.038,20.755,20.755,0,0,0-5.272-.753A20.948,20.948,0,0,0,1.011,41.748c0,11.575,7.512,20.961,19.094,20.961.12,0,.228-.032.354-.032V87.872h62.5V66.456C94.873,65.57,102.012,55.64,102.012,43.5a23.049,23.049,0,0,0-22.284-23ZM50.939,10.9c-5.329,3.443-8.753,8.867-8.753,14.987H33.953c0-8.848,7.171-16.271,16.86-18.353,1.753-.367,2.861,1.595.127,3.367Z" transform="translate(0)"/></g></svg>