<svg xmlns="http://www.w3.org/2000/svg" width="40" height="40" viewBox="0 0 40 40"><defs><style>.a{fill:#db3236;}.b{fill:#fff;}</style></defs><circle class="a" cx="20" cy="20" r="20"/><path class="b" d="M7.357.457C3.657.457,0,2.924,0,6.916,0,9.455,1.428,10.9,2.294,10.9c.357,0,.563-1,.563-1.277C2.856,9.286,2,8.572,2,7.176A4.874,4.874,0,0,1,7.065,2.221c2.456,0,4.274,1.4,4.274,3.96,0,1.915-.768,5.507-3.257,5.507a1.6,1.6,0,0,1-1.666-1.58c0-1.363.952-2.683.952-4.09,0-2.387-3.386-1.955-3.386.93a4.237,4.237,0,0,0,.346,1.828c-.5,2.142-1.515,5.334-1.515,7.541,0,.682.1,1.352.162,2.034.123.137.061.123.249.054,1.818-2.488,1.753-2.975,2.575-6.232a2.925,2.925,0,0,0,2.5,1.3c3.83,0,5.55-3.733,5.55-7.1C13.849,2.794,10.754.457,7.357.457Z" transform="translate(13 10.543)"/></svg>