<svg xmlns="http://www.w3.org/2000/svg" width="99" height="99" viewBox="0 0 99 99"><defs><style>.a{fill:#fa0;}</style></defs><g transform="translate(-2 -2)"><path class="a" d="M21.375,8.188A6.188,6.188,0,1,0,9,8.188v6.188a6.188,6.188,0,0,0,12.375,0Z" transform="translate(36.313)"/><path class="a" d="M28.116,14.548A6.187,6.187,0,0,0,19.367,5.8l-4.375,4.375a6.187,6.187,0,0,0,8.749,8.749Z" transform="translate(58.387 10.698)"/><path class="a" d="M33.563,15.188a6.188,6.188,0,0,1-6.187,6.188H21.188A6.188,6.188,0,0,1,21.188,9h6.188a6.188,6.188,0,0,1,6.188,6.188Z" transform="translate(67.438 36.313)"/><path class="a" d="M10.174,18.923a6.187,6.187,0,1,0,8.749-8.749L14.549,5.8A6.187,6.187,0,0,0,5.8,14.548l4.375,4.375Z" transform="translate(10.699 10.698)"/><path class="a" d="M20.563,15.188a6.188,6.188,0,0,1-6.187,6.188H8.188A6.188,6.188,0,1,1,8.188,9h6.188a6.187,6.187,0,0,1,6.188,6.188Z" transform="translate(0 36.313)"/><path class="a" d="M8,21.188V15H32.75v6.188a12.375,12.375,0,0,1-24.75,0Z" transform="translate(31.125 67.438)"/><path class="a" d="M43.125,55.5a7.347,7.347,0,0,1,2.951-5.315,24.75,24.75,0,1,0-30.653,0A7.3,7.3,0,0,1,18.369,55.5H43.125Z" transform="translate(20.75 20.751)"/></g></svg>