<svg xmlns="http://www.w3.org/2000/svg" width="40" height="40" viewBox="0 0 40 40"><defs><style>.a{fill:#00aced;}.b{fill:#fff;}</style></defs><circle class="a" cx="20" cy="20" r="20"/><path class="b" d="M21.533,8.239c.015.213.015.426.015.64A13.9,13.9,0,0,1,7.553,22.873,13.9,13.9,0,0,1,0,20.665a10.176,10.176,0,0,0,1.188.061,9.851,9.851,0,0,0,6.107-2.1,4.927,4.927,0,0,1-4.6-3.411,6.2,6.2,0,0,0,.929.076,5.2,5.2,0,0,0,1.294-.167A4.919,4.919,0,0,1,.975,10.294v-.061a4.954,4.954,0,0,0,2.223.624A4.926,4.926,0,0,1,1.675,4.279,13.981,13.981,0,0,0,11.817,9.426,5.553,5.553,0,0,1,11.7,8.3a4.923,4.923,0,0,1,8.513-3.365A9.684,9.684,0,0,0,23.33,3.746a4.906,4.906,0,0,1-2.162,2.711A9.861,9.861,0,0,0,24,5.7a10.574,10.574,0,0,1-2.467,2.543Z" transform="translate(8 6.619)"/></svg>