<svg xmlns="http://www.w3.org/2000/svg" width="120.585" height="120.585" viewBox="0 0 120.585 120.585"><defs><style>.a{fill:#fa0;}</style></defs><path class="a" d="M54.3,57.416S88.9,32.452,85.061,3.881a2.277,2.277,0,0,0-.549-1.313A2.137,2.137,0,0,0,83.223,2C55.3-1.922,30.913,33.476,30.913,33.476,9.752,30.942,11.291,35.162,1.636,58.352c-1.848,4.42,1.147,5.945,4.43,4.7l10.527-3.974L29.286,72.054,25.4,82.831c-1.215,3.362.27,6.425,4.6,4.538,22.661-9.88,26.787-8.3,24.307-29.953Zm4.945-28.993a7.812,7.812,0,0,1,0-10.865,7.395,7.395,0,0,1,10.615,0,7.811,7.811,0,0,1,0,10.865,7.395,7.395,0,0,1-10.615,0Z" transform="translate(-1.959 59.155) rotate(-45)"/></svg>