<svg xmlns="http://www.w3.org/2000/svg" width="17.804" height="19" viewBox="0 0 17.804 19">
    <g transform="translate(-20 -17.941)">
        <path class="a" d="M23.26,25.778h3.26V24H23.26A3.26,3.26,0,0,0,20,27.26v12.2a1.728,1.728,0,0,0,2.964,1.221l3.853-3.853,3.853,3.853a1.728,1.728,0,0,0,2.964-1.221V32.892H31.856v6.449L26.817,34.3l-5.039,5.039V27.26a1.482,1.482,0,0,1,1.482-1.482Z" transform="translate(0 -4.263)"/>
        <path class="a" d="M57.5,20.943a2.985,2.985,0,0,0-4.742-2.413,2.985,2.985,0,0,0-3.874,4.523l3.868,3.853L56.6,23.054A2.964,2.964,0,0,0,57.5,20.943Zm-2.131.868-2.611,2.611-2.611-2.611a1.21,1.21,0,1,1,1.7-1.722l.9.889.889-.889a1.22,1.22,0,0,1,1.728,1.722Z" transform="translate(-19.696)"/>
    </g>
</svg>