<svg xmlns="http://www.w3.org/2000/svg" width="19.436" height="18.639" viewBox="0 0 19.436 18.639">
  <g id="Icon_awesome-star1" data-name="Icon awesome-star1" transform="translate(0.513 0.5)">
    <path id="Icon_awesome-star" data-name="Icon awesome-star" d="M9.659.612,7.412,5.168,2.384,5.9A1.1,1.1,0,0,0,1.775,7.78l3.637,3.544-.86,5.007a1.1,1.1,0,0,0,1.6,1.16l4.5-2.364,4.5,2.364a1.1,1.1,0,0,0,1.6-1.16l-.86-5.007L19.518,7.78A1.1,1.1,0,0,0,18.908,5.9l-5.027-.733L11.634.612A1.1,1.1,0,0,0,9.659.612Z" transform="translate(-1.441 0.001)" fill="none" stroke="#b8b8b8" stroke-width="1"/>
  </g>
</svg>
