<svg id="Icon_awesome-star" data-name="Icon awesome-star" xmlns="http://www.w3.org/2000/svg" width="18.41" height="17.621" viewBox="0 0 18.41 17.621">
  <path id="Icon_awesome-star-2" data-name="Icon awesome-star" d="M9.659.612,7.412,5.168,2.384,5.9A1.1,1.1,0,0,0,1.775,7.78l3.637,3.544-.86,5.007a1.1,1.1,0,0,0,1.6,1.16l4.5-2.364,4.5,2.364a1.1,1.1,0,0,0,1.6-1.16l-.86-5.007L19.518,7.78A1.1,1.1,0,0,0,18.908,5.9l-5.027-.733L11.634.612A1.1,1.1,0,0,0,9.659.612Z" transform="translate(-1.441 0.001)" fill="#fa0"/>
</svg>
