<?xml version="1.0" standalone="no"?>
<!DOCTYPE svg PUBLIC "-//W3C//DTD SVG 20010904//EN"
 "http://www.w3.org/TR/2001/REC-SVG-20010904/DTD/svg10.dtd">
<svg version="1.0" xmlns="http://www.w3.org/2000/svg"
 width="952.000000pt" height="952.000000pt" viewBox="0 0 952.000000 952.000000"
 preserveAspectRatio="xMidYMid meet">
<metadata>
Created by potrace 1.14, written by Peter Selinger 2001-2017
</metadata>
<g transform="translate(0.000000,952.000000) scale(0.100000,-0.100000)"
fill="#000000" stroke="none">
<path d="M4567 7304 c-2 -2 -167 -15 -219 -18 -16 0 -28 -3 -28 -6 0 -3 -8 -6
-17 -6 -32 -1 -96 -13 -158 -29 -147 -39 -211 -57 -230 -65 -28 -12 -58 -23
-70 -25 -12 -3 -100 -39 -160 -65 -22 -10 -43 -17 -46 -16 -4 0 -16 -8 -28
-18 -12 -11 -21 -17 -21 -13 0 5 -74 -31 -142 -71 -21 -12 -53 -31 -72 -41
-32 -18 -138 -86 -161 -103 -107 -80 -319 -278 -298 -278 4 0 3 -4 -3 -8 -15
-10 -74 -99 -74 -111 0 -6 -4 -11 -9 -11 -5 0 -11 -8 -14 -17 -3 -10 -17 -45
-31 -77 -14 -33 -28 -71 -31 -85 -3 -14 -8 -37 -11 -51 -10 -44 -13 -194 -4
-235 5 -22 11 -51 14 -65 10 -53 68 -187 86 -200 4 -3 13 -16 20 -30 7 -14 19
-32 26 -40 56 -62 129 -130 139 -130 3 0 15 -9 27 -20 12 -11 28 -20 35 -20 7
0 13 -4 13 -10 0 -5 6 -10 14 -10 8 0 16 -4 18 -8 9 -22 270 -127 283 -114 7
7 27 -23 32 -48 1 -8 5 -34 7 -57 3 -24 7 -46 9 -50 3 -5 8 -30 11 -58 3 -27
10 -67 15 -87 5 -20 6 -40 3 -43 -13 -13 22 -22 52 -13 17 5 38 11 47 13 8 2
39 10 67 19 29 8 52 13 52 10 0 -3 8 0 18 5 9 5 34 12 56 15 21 4 42 8 46 11
5 3 23 8 42 10 38 6 63 11 98 20 14 4 36 8 50 9 14 2 34 6 45 9 11 4 40 9 65
11 25 3 56 8 70 11 26 5 87 14 155 21 22 2 67 7 100 10 33 4 84 7 112 8 29 0
53 3 53 6 0 8 384 6 397 -3 6 -4 14 -3 18 3 4 6 11 7 17 4 6 -4 34 -9 62 -11
49 -4 91 -10 91 -13 0 -1 23 -3 50 -4 28 -2 50 -4 50 -6 0 -2 13 -4 75 -14 19
-3 62 -12 95 -21 33 -9 68 -18 78 -20 115 -26 437 -179 437 -207 0 -4 6 -8 14
-8 13 0 31 34 38 70 2 8 5 17 8 20 8 7 55 154 52 163 -1 4 2 7 8 7 6 0 9 3 9
8 -1 4 0 10 1 15 1 4 4 12 5 17 1 6 3 11 4 13 2 1 5 13 7 26 2 14 6 26 8 28 2
2 32 -6 67 -18 54 -18 78 -20 149 -15 47 3 95 8 108 11 12 3 31 7 42 9 11 3
25 8 30 11 6 4 21 8 34 11 69 12 218 133 231 187 4 15 11 27 15 27 17 0 34
109 33 210 0 64 -6 117 -19 175 -3 17 -7 36 -7 43 0 6 -4 12 -9 12 -4 0 -8 7
-8 15 0 18 -43 106 -74 149 -32 47 -106 115 -161 151 -61 39 -89 52 -255 116
-47 18 -128 55 -180 82 -52 28 -107 56 -121 64 -15 7 -32 20 -39 28 -7 8 -18
15 -24 15 -7 0 -21 8 -32 18 -10 9 -37 30 -59 46 -22 16 -47 37 -56 45 -8 9
-34 32 -57 51 -23 19 -42 40 -42 48 0 7 -4 11 -9 8 -5 -4 -12 0 -14 6 -3 8 -6
9 -6 2 -1 -6 10 -28 24 -48 14 -20 25 -41 25 -46 0 -6 5 -10 12 -10 6 0 9 -3
5 -6 -13 -13 118 -157 208 -229 20 -16 43 -36 51 -43 8 -7 14 -10 14 -5 0 4 4
3 8 -3 4 -6 41 -33 82 -61 75 -50 118 -75 240 -141 36 -19 72 -41 81 -48 8 -8
19 -14 23 -14 4 0 34 -28 68 -62 61 -63 121 -155 112 -170 -3 -4 -1 -8 3 -8
14 0 21 -104 11 -165 -9 -54 -49 -125 -95 -168 -24 -23 -47 -42 -51 -43 -4 0
-24 -8 -44 -17 -42 -19 -140 -24 -178 -9 -14 5 -27 10 -30 10 -11 1 -66 28
-84 42 -10 8 -51 47 -90 86 -70 69 -154 134 -175 134 -6 0 -11 4 -11 8 0 7
-46 29 -75 37 -5 2 -35 10 -65 19 -30 8 -73 18 -95 21 -22 3 -59 8 -82 11 -27
3 -43 1 -43 -6 0 -5 6 -10 14 -10 7 0 19 -7 26 -15 7 -8 16 -12 21 -9 5 3 9 0
9 -5 0 -6 6 -11 13 -11 7 0 32 -16 55 -36 23 -19 42 -33 42 -30 0 3 32 -25 72
-64 40 -38 75 -70 79 -70 13 0 30 -104 20 -127 -1 -1 -13 2 -28 8 -24 9 -47
15 -88 23 -5 1 -14 4 -20 8 -5 3 -26 9 -45 12 -19 3 -45 8 -56 10 -135 28
-279 40 -484 40 -188 1 -313 -7 -465 -29 -22 -3 -58 -8 -80 -11 -22 -3 -49 -7
-60 -9 -11 -2 -26 -4 -34 -4 -8 -1 -11 -4 -8 -8 8 -7 69 -9 83 -1 12 6 62 10
151 12 40 0 73 4 73 7 0 3 7 6 15 6 8 0 15 -4 15 -9 0 -5 5 -6 10 -3 13 8 130
12 130 5 0 -3 37 -5 83 -5 135 -1 319 -23 487 -59 14 -3 36 -8 50 -11 14 -3
34 -7 45 -9 11 -2 34 -9 50 -16 17 -6 31 -11 33 -11 1 1 3 1 5 0 1 0 9 -2 17
-4 9 -1 41 -11 72 -20 l57 -18 -2 -63 c-1 -34 -4 -61 -7 -60 -3 1 -16 7 -30
13 -39 18 -62 26 -102 36 -7 2 -33 10 -58 17 -72 22 -105 30 -140 36 -36 6
-65 12 -65 14 0 1 -13 3 -30 5 -16 2 -50 7 -75 11 -25 3 -56 8 -70 10 -124 18
-424 23 -605 10 -129 -9 -190 -14 -190 -16 0 -1 -17 -3 -37 -6 -21 -2 -55 -6
-75 -8 -21 -3 -38 -5 -38 -6 0 -1 -9 -3 -20 -4 -11 -2 -40 -6 -65 -11 -25 -4
-54 -9 -65 -11 -11 -2 -27 -5 -35 -7 -8 -2 -37 -8 -65 -12 -57 -10 -63 -12
-70 -15 -3 -1 -9 -4 -15 -5 -5 -1 -12 -4 -15 -5 -7 -4 -14 -5 -62 -14 -24 -4
-43 -11 -43 -15 0 -4 -16 -6 -35 -6 -19 1 -35 -2 -35 -7 0 -4 -3 -7 -7 -6 -9
2 -117 -28 -150 -42 -25 -10 -28 -4 -38 78 l-6 52 33 1 c59 1 162 9 188 13 68
13 88 18 118 27 18 6 39 12 45 13 82 14 407 195 407 227 0 5 7 9 15 9 7 0 18
6 22 14 10 17 123 90 224 144 69 38 241 110 279 117 8 2 33 8 55 14 63 16 147
28 214 30 36 1 38 8 5 14 -24 5 -54 16 -77 28 -10 5 -22 7 -27 4 -5 -3 -11 -1
-15 4 -3 6 -13 7 -22 4 -12 -5 -14 -3 -8 8 7 11 6 12 -6 2 -8 -7 -20 -8 -28
-4 -13 8 -21 8 -146 -4 -80 -8 -94 -10 -115 -17 -8 -3 -33 -11 -55 -18 -54
-17 -163 -68 -200 -94 -16 -11 -32 -21 -35 -21 -5 -1 -31 -15 -75 -43 -28 -17
-84 -42 -91 -41 -4 0 -10 -3 -13 -8 -11 -17 -197 -96 -252 -108 -19 -4 -38
-10 -44 -13 -5 -3 -16 -7 -25 -8 -8 -1 -28 -4 -45 -8 -16 -4 -64 -9 -105 -11
-41 -2 -75 -5 -75 -5 0 -1 -8 -3 -17 -5 -10 -2 -18 1 -18 6 0 6 -8 5 -20 -1
-11 -6 -20 -7 -20 -3 0 4 -15 9 -33 9 -60 2 -107 8 -107 14 0 3 -17 6 -37 7
-21 1 -39 6 -41 12 -2 5 -9 8 -17 5 -17 -7 -185 64 -185 79 0 4 -6 7 -13 7 -8
0 -33 18 -57 40 -24 22 -47 40 -52 40 -4 0 -8 4 -8 8 0 5 -11 22 -24 37 -28
32 -72 115 -68 127 1 4 -2 8 -6 8 -9 0 -10 5 -15 61 -2 19 -6 40 -9 45 -2 5
-3 23 -2 39 2 17 5 53 7 80 9 101 53 219 123 328 41 62 196 227 214 227 4 0
23 13 41 30 19 16 40 30 47 30 6 0 12 3 12 8 0 4 19 16 43 27 23 11 44 22 47
25 17 18 241 114 293 126 4 1 9 3 12 4 3 1 8 3 13 4 4 1 13 5 20 9 6 5 17 5
22 2 6 -3 10 -2 10 3 0 9 67 24 81 19 3 -1 13 4 22 12 10 7 17 11 17 8 0 -3
15 -1 33 4 37 11 95 22 120 23 9 0 17 3 17 7 0 4 11 6 25 4 14 -1 27 1 30 5 2
4 21 8 42 9 21 2 46 3 56 4 9 1 17 5 17 9 0 5 9 4 19 -2 11 -5 22 -6 25 -2 10
16 264 21 381 8 39 -4 82 -8 98 -9 15 -1 27 -4 27 -7 0 -3 10 -6 23 -8 65 -5
317 -112 317 -134 0 -5 4 -7 8 -4 5 3 15 -4 22 -15 8 -10 18 -19 23 -19 13 0
116 -111 123 -132 3 -10 9 -18 14 -18 16 0 75 -122 100 -205 15 -50 19 -57 26
-40 13 30 10 263 -4 277 -7 7 -12 18 -12 26 0 19 -31 85 -44 94 -6 4 -7 8 -2
8 14 0 -65 100 -113 143 -14 12 -32 29 -41 38 -25 23 -133 89 -148 89 -6 0
-12 5 -12 10 0 6 -9 10 -19 10 -11 0 -27 7 -35 16 -9 8 -16 13 -16 10 0 -3
-22 3 -49 13 -28 10 -52 16 -55 13 -4 -3 -6 0 -6 5 0 6 -8 10 -17 8 -10 -1
-25 1 -33 5 -21 11 -114 26 -215 35 -27 2 -50 5 -50 5 0 2 -166 5 -168 4z"/>
<path d="M4848 6645 c-6 -14 -15 -25 -20 -25 -4 0 -8 -7 -8 -15 0 -8 -5 -15
-12 -15 -6 0 -8 -3 -5 -6 4 -4 -7 -24 -23 -44 -16 -20 -27 -40 -24 -43 15 -15
-41 -25 -129 -24 -53 1 -97 -2 -97 -6 0 -5 -4 -5 -10 -2 -21 13 -8 -11 25 -50
19 -22 35 -42 35 -46 0 -3 16 -23 35 -45 24 -25 34 -46 31 -59 -8 -35 -14 -59
-35 -135 -12 -41 -21 -75 -21 -76 0 -1 15 -4 34 -6 19 -2 33 -1 30 3 -2 4 4
13 13 20 12 10 14 10 9 2 -11 -19 5 -15 20 5 8 10 13 12 14 5 0 -7 7 -10 15
-7 8 4 12 11 8 17 -4 6 0 8 9 4 9 -3 26 1 38 10 20 14 25 12 90 -32 38 -26 78
-56 90 -67 11 -11 28 -21 38 -23 15 -3 18 4 16 46 0 27 -4 52 -7 55 -4 4 -2
15 3 25 7 13 6 22 -6 33 -8 9 -11 16 -6 16 5 0 9 7 9 15 0 8 -5 15 -10 15 -5
0 -4 7 3 15 7 8 9 15 6 15 -4 0 -1 7 8 15 17 18 30 20 20 3 -4 -7 -3 -8 5 -4
6 4 9 12 5 17 -3 6 3 13 15 16 11 3 19 9 16 13 -3 4 5 10 16 13 13 4 18 10 13
18 -4 8 -3 10 5 5 14 -9 43 12 35 25 -3 5 1 6 9 3 8 -3 18 0 23 7 4 7 3 10 -4
5 -6 -3 -13 2 -16 12 -4 10 -12 19 -19 20 -22 2 -42 7 -54 15 -7 5 -13 5 -13
1 0 -3 -7 -1 -15 6 -8 6 -19 9 -24 6 -5 -4 -12 -2 -16 4 -3 5 -15 10 -26 10
-10 0 -19 5 -19 10 0 6 -7 10 -15 10 -8 0 -15 5 -15 11 0 5 4 7 10 4 6 -3 7 1
4 9 -3 9 -9 14 -14 11 -4 -2 -6 6 -5 20 2 14 -3 26 -12 29 -12 5 -13 9 -3 21
9 11 7 16 -9 27 -15 9 -17 15 -9 25 7 9 7 13 -1 13 -6 0 -11 7 -11 15 0 8 -5
15 -11 15 -5 0 -7 5 -4 10 3 6 1 10 -5 10 -6 0 -16 -11 -22 -25z"/>
<path d="M4475 5440 c-19 -8 -19 -9 3 -9 12 -1 22 4 22 9 0 6 -1 10 -2 9 -2 0
-12 -4 -23 -9z"/>
<path d="M4415 5430 c-2 -3 5 -7 16 -7 10 -1 19 2 19 6 0 9 -29 10 -35 1z"/>
<path d="M4358 5413 c7 -3 16 -2 19 1 4 3 -2 6 -13 5 -11 0 -14 -3 -6 -6z"/>
<path d="M422 5101 c-8 -4 -34 -7 -60 -6 -85 5 -121 -22 -116 -87 2 -29 10
-49 25 -60 20 -17 107 -18 1502 -16 l1482 2 21 23 c16 18 21 34 20 65 -5 77 4
75 -406 74 -199 -1 -364 2 -367 7 -2 4 -9 4 -16 0 -16 -10 -137 -11 -143 -1
-3 5 -10 5 -17 1 -16 -10 -137 -11 -143 -1 -3 5 -10 5 -17 1 -16 -10 -137 -11
-143 -1 -3 4 -13 5 -22 0 -14 -6 -1407 -8 -1422 -2 -3 1 -9 1 -15 0 -24 -7
-131 -6 -140 1 -6 4 -16 4 -23 0z"/>
<path d="M6330 5103 c0 -5 -13 -8 -30 -7 -17 1 -40 -6 -53 -16 -20 -16 -23
-27 -21 -66 4 -87 -143 -79 1513 -79 l1469 0 21 24 c28 32 28 90 1 119 -12 12
-24 22 -28 22 -26 1 -1456 0 -1494 -2 -27 -1 -51 1 -54 5 -3 3 -16 2 -28 -3
-13 -4 -29 -4 -39 1 -9 6 -17 6 -17 2 0 -9 -148 -8 -157 1 -3 2 -15 1 -27 -4
-13 -4 -29 -4 -39 1 -9 6 -17 6 -17 2 0 -9 -148 -8 -157 1 -3 2 -15 1 -27 -4
-13 -4 -29 -4 -39 1 -10 6 -17 6 -17 1 0 -9 -67 -9 -76 1 -4 3 -16 2 -28 -3
-13 -4 -29 -4 -39 1 -9 6 -17 6 -17 2 0 -9 -148 -8 -157 1 -3 2 -15 1 -27 -4
-13 -4 -29 -4 -39 1 -9 6 -17 6 -17 2 0 -6 -140 -8 -160 -2 -3 1 -9 0 -15 -1
-25 -5 -165 -1 -174 5 -6 3 -11 2 -11 -2z"/>
<path d="M2582 4405 c-10 -14 -11 -209 -2 -215 5 -3 81 -5 169 -4 l161 1 1
-641 c0 -353 1 -732 1 -843 0 -143 3 -203 11 -205 11 -4 227 -3 282 1 20 1 20
7 20 844 l0 842 163 1 c89 0 164 3 167 5 8 9 10 104 2 117 -5 7 -3 12 3 12 6
0 8 5 4 12 -4 6 -7 27 -6 47 l2 36 -486 0 c-313 0 -488 -4 -492 -10z"/>
<path d="M4057 4414 c-1 -1 -21 -4 -43 -6 -57 -7 -123 -41 -170 -87 -72 -70
-70 -45 -67 -881 1 -410 3 -751 4 -757 1 -7 6 -13 11 -13 5 0 7 -4 3 -9 -3 -5
2 -17 11 -25 8 -9 13 -16 10 -16 -14 0 81 -81 102 -86 12 -4 22 -10 22 -15 0
-5 11 -9 24 -9 14 0 27 -3 30 -8 2 -4 114 -7 248 -7 239 1 244 2 298 27 69 32
111 70 141 128 22 41 24 58 24 193 l1 147 -28 1 c-15 0 -75 1 -133 1 -58 0
-116 -1 -128 -1 -24 -1 -24 -1 -23 -135 l2 -133 -153 0 -153 1 -1 25 c-3 75
-4 1399 -1 1417 4 20 9 21 153 21 98 -1 149 -4 150 -11 1 -6 2 -67 3 -136 l1
-125 155 0 155 0 -1 130 c-2 157 -8 206 -31 223 -9 6 -13 12 -9 12 5 0 -11 20
-35 44 -24 24 -47 42 -51 39 -5 -2 -8 0 -8 5 0 8 -48 27 -100 39 -14 4 -410
10 -413 7z"/>
<path d="M4916 4405 c-2 -5 0 -19 4 -29 3 -11 3 -37 0 -58 -4 -21 -4 -41 0
-43 4 -3 4 -21 0 -40 -4 -19 -4 -37 0 -40 4 -3 4 -21 0 -42 -5 -21 -5 -44 0
-54 5 -9 7 -19 4 -22 -3 -3 -5 -45 -5 -94 2 -149 1 -165 -4 -173 -3 -5 -1 -11
4 -14 5 -4 5 -21 1 -43 -5 -21 -5 -44 1 -54 6 -12 5 -20 -1 -24 -8 -5 -8 -11
-1 -19 6 -7 8 -15 5 -19 -10 -9 -11 -81 -2 -99 5 -10 3 -18 -5 -21 -8 -4 -8
-6 -1 -6 8 -1 9 -12 4 -37 -5 -20 -5 -46 -1 -57 4 -11 5 -38 1 -59 -4 -21 -4
-41 0 -43 4 -3 4 -21 0 -40 -4 -19 -4 -37 0 -40 4 -3 4 -21 0 -42 -5 -21 -5
-44 0 -54 5 -9 7 -19 4 -22 -3 -3 -5 -45 -5 -94 2 -149 1 -165 -4 -173 -3 -5
-1 -11 4 -14 5 -4 5 -21 1 -43 -5 -21 -5 -44 1 -54 6 -12 5 -20 -1 -24 -7 -5
-8 -11 -1 -19 5 -6 7 -17 3 -23 -7 -11 -7 -73 1 -108 2 -11 0 -28 -4 -37 -6
-11 -5 -20 3 -25 15 -9 284 -12 298 -3 5 3 11 161 12 369 l3 364 140 -1 c77 0
145 -1 151 -1 9 -1 12 -98 10 -366 0 -236 3 -366 9 -368 6 -2 75 -3 155 -3
l145 1 0 959 0 959 -125 1 c-69 1 -138 -1 -154 -4 l-29 -5 0 -472 c1 -260 -2
-472 -6 -471 -3 0 -10 -1 -16 -2 -27 -5 -204 -2 -214 4 -6 4 -11 3 -11 -2 0
-5 -13 -7 -30 -4 l-30 4 0 474 c0 372 -3 474 -12 475 -82 6 -299 2 -302 -6z"/>
<path d="M6083 4410 c-18 -5 -19 -39 -17 -950 1 -520 2 -950 3 -955 1 -7 158
-10 459 -9 251 1 459 2 462 3 5 1 5 210 1 258 -1 9 -68 12 -273 12 -150 0
-289 0 -308 0 l-35 1 0 298 0 297 230 2 c127 1 237 2 246 2 14 1 16 16 15 109
l-1 107 -245 5 -245 5 -1 260 c0 143 3 267 8 276 6 14 15 15 43 9 21 -5 35 -4
35 1 0 6 8 5 19 -1 11 -5 22 -7 24 -3 3 5 48 6 101 3 53 -3 96 -1 96 3 0 4 9
3 19 -3 11 -5 22 -7 24 -3 3 5 48 6 101 3 53 -3 96 -2 96 1 0 3 11 4 25 1 29
-5 26 -16 29 151 0 60 -1 112 -4 115 -6 8 -880 10 -907 2z"/>
<path d="M7209 4385 c-3 -204 0 -1878 5 -1882 3 -3 72 -6 152 -5 152 0 173 6
154 42 -5 9 -5 22 0 30 5 8 5 19 0 25 -5 6 -5 17 0 25 4 7 4 24 -1 37 -5 14
-5 23 1 23 6 0 6 9 1 23 -5 12 -5 31 -1 43 5 11 5 27 0 34 -4 7 -4 25 0 40 4
15 4 33 0 41 -5 7 -4 21 1 30 6 11 5 20 -1 24 -6 4 -7 12 -1 23 5 9 5 26 0 39
-5 14 -5 23 1 23 6 0 6 9 1 23 -5 12 -5 31 -1 43 5 11 5 27 0 34 -4 7 -4 25 0
40 4 15 4 33 0 41 -5 7 -7 17 -4 21 8 12 9 92 2 104 -4 5 -3 16 2 24 6 10 46
14 180 14 95 1 174 -2 177 -7 2 -4 9 -5 14 -1 19 11 58 14 64 4 4 -7 12 -7 24
0 10 5 21 6 25 3 7 -7 7 -5 7 82 0 36 0 83 0 105 l-1 40 -246 0 c-192 0 -245
3 -241 13 2 6 0 22 -4 35 -5 13 -5 22 1 22 6 0 6 9 1 23 -5 12 -5 31 -1 43 5
11 5 27 0 34 -4 7 -4 25 0 40 4 15 4 33 0 41 -5 7 -4 21 1 30 6 11 5 20 -1 24
-6 4 -7 12 -1 23 5 9 5 26 0 39 -5 14 -5 23 1 23 6 0 6 9 1 23 -5 12 -5 31 -1
42 4 11 4 27 -1 36 -5 9 -6 19 -2 23 3 3 6 18 7 33 l1 27 308 -1 c169 0 305 2
303 5 -3 2 -1 13 5 23 5 11 6 19 2 19 -4 0 -7 49 -6 110 2 60 -1 111 -5 111
-4 1 -213 2 -464 3 l-458 1 -1 -30z"/>
<path d="M8553 4403 c-59 -20 -86 -35 -115 -65 -16 -15 -28 -24 -28 -20 0 7
-21 -26 -41 -68 -9 -17 -13 -86 -13 -215 0 -167 2 -195 19 -232 11 -24 23 -43
27 -43 5 0 8 -5 8 -11 0 -5 13 -24 30 -42 16 -18 30 -35 30 -39 0 -5 8 -16 18
-26 19 -21 42 -50 57 -74 12 -19 127 -171 135 -178 3 -3 16 -21 30 -40 29 -42
39 -55 63 -81 9 -10 17 -21 17 -24 0 -3 24 -35 53 -73 28 -38 61 -81 72 -96
11 -15 28 -37 38 -48 17 -21 18 -33 18 -163 0 -36 0 -82 0 -103 l-1 -38 -152
1 -153 0 -1 140 c-1 77 -2 146 -3 153 -1 9 -39 12 -155 12 l-153 0 1 -172 c2
-190 5 -203 68 -269 44 -47 97 -76 155 -85 57 -9 432 -9 486 0 98 16 195 104
214 195 9 39 10 312 2 341 -4 14 -10 37 -13 52 -5 22 -103 165 -140 204 -6 6
-18 22 -26 34 -8 12 -26 37 -40 55 -14 17 -34 44 -45 59 -11 15 -32 42 -47 59
-15 18 -28 35 -28 38 0 3 -8 15 -18 27 -10 11 -27 33 -38 47 -73 100 -128 171
-138 177 -6 4 -7 8 -1 8 6 0 2 5 -7 11 -10 5 -18 17 -18 24 0 8 -3 15 -7 15
-5 0 -17 13 -28 28 -18 24 -20 43 -21 168 l0 142 153 0 153 1 0 -32 c1 -18 1
-89 1 -159 1 -71 4 -129 7 -129 16 -3 288 -5 297 -2 11 4 11 285 0 342 -13 65
-75 140 -140 169 -16 8 -32 14 -35 14 -3 0 -14 5 -25 11 -30 16 -474 16 -522
0z"/>
<path d="M285 3453 l1 -958 465 0 464 0 1 125 c0 69 -1 130 -3 136 -3 7 -100
10 -304 10 -190 -1 -303 3 -308 9 -9 13 -7 167 2 183 5 6 4 12 0 12 -10 0 -10
106 -1 116 4 3 4 16 0 28 -10 27 -9 68 1 84 5 6 4 12 0 12 -11 0 -10 101 2
119 6 10 4 12 -5 6 -10 -6 -10 -4 -2 11 10 18 26 19 249 19 l238 0 3 111 3
111 -242 -1 c-205 -1 -242 1 -248 14 -9 20 -8 62 2 78 5 6 5 12 0 12 -4 0 -8
97 -7 216 1 185 3 218 18 232 9 9 16 12 16 6 0 -14 31 -14 48 -1 6 5 12 6 12
1 0 -11 210 -11 228 -1 6 5 12 5 12 0 0 -4 26 -7 57 -6 32 2 63 3 68 3 6 0 43
-1 83 -3 46 -2 72 1 73 7 1 6 2 68 3 139 l1 127 -465 0 -465 0 0 -957z"/>
<path d="M1581 4379 c-70 -35 -122 -91 -140 -150 -13 -43 -13 -91 -11 -1097 0
-282 -2 -517 -5 -522 -4 -6 -2 -10 4 -10 7 0 7 -8 1 -25 -5 -13 -6 -27 -1 -29
5 -3 6 -16 4 -29 l-5 -24 156 0 c150 1 156 2 157 22 0 11 1 135 1 277 0 229 2
257 17 260 9 2 77 3 151 3 l135 -1 3 -280 2 -280 155 0 155 0 0 45 c1 37 -1
917 -2 1086 0 22 1 56 1 75 1 19 0 74 -1 123 -2 48 1 87 5 87 4 0 4 8 -1 18
-4 9 -7 28 -6 42 4 33 4 69 3 160 -2 58 -8 87 -28 128 -14 28 -31 52 -39 52
-7 0 -11 4 -8 8 6 11 -74 62 -122 79 -25 8 -112 12 -278 12 l-242 0 -61 -30z
m459 -198 c3 -1 7 -204 8 -452 1 -369 -1 -450 -12 -446 -7 3 -19 1 -26 -3 -7
-4 -22 -5 -33 -1 -11 4 -38 5 -59 1 -21 -4 -41 -3 -44 2 -4 5 -10 5 -17 0 -7
-5 -21 -6 -32 -2 -11 4 -30 4 -42 -1 -17 -6 -26 -3 -38 14 -8 12 -12 23 -8 24
5 2 7 198 5 435 l-3 433 148 -2 c81 0 150 -1 153 -2z"/>
</g>
</svg>
